# MDJ26.wad, map MAP01
# Created by Ultimate Doom Builder 3.0.0.4323

o MAP01
v 37.6959993839264 3.96799993515015 -16.3679997324944
v 37.6959993839264 9.91999983787537 -16.3679997324944
v 37.6959993839264 9.91999983787537 -41.1679993271828
v 37.6959993839264 3.96799993515015 -41.1679993271828
v -35.7119994163513 3.96799993515015 -41.1679993271828
v -35.7119994163513 9.91999983787537 -41.1679993271828
v -35.7119994163513 9.91999983787537 -16.3679997324944
v -35.7119994163513 3.96799993515015 -16.3679997324944
v -3.96799993515015 0.495999991893768 37.1999993920326
v -3.96799993515015 9.91999983787537 37.1999993920326
v -2.97599995136261 9.91999983787537 37.1999993920326
v -2.97599995136261 0.495999991893768 37.1999993920326
v -2.97599995136261 0.495999991893768 31.2479994893074
v -2.97599995136261 1.98399996757507 31.2479994893074
v -3.96799993515015 1.98399996757507 31.2479994893074
v -3.96799993515015 0.495999991893768 31.2479994893074
v -3.96799993515015 0.991999983787537 31.2479994893074
v -3.96799993515015 0.991999983787537 37.1999993920326
v 2.97599995136261 3.96799993515015 3.47199994325638
v 2.97599995136261 7.93599987030029 3.47199994325638
v 5.95199990272522 7.93599987030029 3.47199994325638
v 5.95199990272522 3.96799993515015 3.47199994325638
v 5.95199990272522 3.96799993515015 -7.43999987840652
v 5.95199990272522 7.93599987030029 -7.43999987840652
v 2.97599995136261 7.93599987030029 -7.43999987840652
v 2.97599995136261 3.96799993515015 -7.43999987840652
v 3.96799993515015 3.96799993515015 -3.47199994325638
v 3.96799993515015 7.93599987030029 -3.47199994325638
v 3.96799993515015 7.93599987030029 -0.495999991893768
v 3.96799993515015 3.96799993515015 -0.495999991893768
v 2.97599995136261 3.96799993515015 -3.47199994325638
v 2.97599995136261 7.93599987030029 -3.47199994325638
v 2.97599995136261 7.93599987030029 -0.495999991893768
v 2.97599995136261 3.96799993515015 -0.495999991893768
v 38.6879993677139 3.96799993515015 17.3599997162819
v 38.6879993677139 7.93599987030029 17.3599997162819
v 38.6879993677139 7.93599987030029 11.4079998135567
v 38.6879993677139 3.96799993515015 11.4079998135567
v 30.7519994974136 3.96799993515015 17.3599997162819
v 30.7519994974136 7.93599987030029 17.3599997162819
v 30.7519994974136 7.93599987030029 11.4079998135567
v 30.7519994974136 3.96799993515015 11.4079998135567
v 7.93599987030029 3.96799993515015 7.43999987840652
v 7.93599987030029 7.93599987030029 7.43999987840652
v 7.93599987030029 7.93599987030029 9.4239998459816
v 7.93599987030029 3.96799993515015 9.4239998459816
v 15.8719997406006 3.96799993515015 9.4239998459816
v 15.8719997406006 7.93599987030029 9.4239998459816
v 15.8719997406006 7.93599987030029 7.43999987840652
v 15.8719997406006 3.96799993515015 7.43999987840652
v 21.8239996433258 3.96799993515015 7.43999987840652
v 21.8239996433258 7.93599987030029 7.43999987840652
v 21.8239996433258 7.93599987030029 9.4239998459816
v 21.8239996433258 3.96799993515015 9.4239998459816
v 30.7519994974136 3.96799993515015 9.4239998459816
v 30.7519994974136 7.93599987030029 9.4239998459816
v 30.7519994974136 7.93599987030029 7.43999987840652
v 30.7519994974136 3.96799993515015 7.43999987840652
v 29.7599995136261 2.97599995136261 30.2559995055199
v 29.7599995136261 9.91999983787537 30.2559995055199
v 30.7519994974136 9.91999983787537 27.2799995541573
v 30.7519994974136 2.97599995136261 27.2799995541573
v 28.7679995298386 2.97599995136261 33.2319994568825
v 28.7679995298386 9.91999983787537 33.2319994568825
v 30.7519994974136 3.47199994325638 27.2799995541573
v 21.8239996433258 3.47199994325638 25.2959995865822
v 21.8239996433258 2.97599995136261 25.2959995865822
v 19.8399996757507 1.4879999756813 38.1919993758202
v 19.8399996757507 1.98399996757507 38.1919993758202
v 16.8639997243881 1.98399996757507 31.2479994893074
v 16.8639997243881 1.4879999756813 31.2479994893074
v 15.8719997406006 1.4879999756813 38.1919993758202
v 15.8719997406006 9.91999983787537 38.1919993758202
v 19.8399996757507 9.91999983787537 38.1919993758202
v 28.7679995298386 2.47999995946884 33.2319994568825
v 20.8319996595383 2.97599995136261 28.2719995379448
v 20.8319996595383 2.47999995946884 28.2719995379448
v 24.7999995946884 2.47999995946884 36.2079994082451
v 24.7999995946884 9.91999983787537 36.2079994082451
v 30.7519994974136 3.47199994325638 19.343999683857
v 30.7519994974136 3.96799993515015 19.343999683857
v 21.8239996433258 3.96799993515015 19.343999683857
v 21.8239996433258 3.47199994325638 19.343999683857
v 30.7519994974136 3.47199994325638 25.2959995865822
v 30.7519994974136 9.91999983787537 25.2959995865822
v 30.7519994974136 9.91999983787537 19.343999683857
v 24.7999995946884 1.98399996757507 36.2079994082451
v 18.8479996919632 2.47999995946884 30.2559995055199
v 18.8479996919632 1.98399996757507 30.2559995055199
v 15.8719997406006 0.991999983787537 38.1919993758202
v 14.879999756813 1.4879999756813 31.2479994893074
v 14.879999756813 0.991999983787537 31.2479994893074
v 11.9039998054504 0.991999983787537 38.1919993758202
v 11.9039998054504 9.91999983787537 38.1919993758202
v 11.9039998054504 0.495999991893768 38.1919993758202
v 11.9039998054504 0.991999983787537 31.2479994893074
v 11.9039998054504 0.495999991893768 31.2479994893074
v 7.93599987030029 0.495999991893768 38.1919993758202
v 7.93599987030029 9.91999983787537 38.1919993758202
v -17.8559997081757 0 7.43999987840652
v -17.8559997081757 5.95199990272522 7.43999987840652
v -17.8559997081757 5.95199990272522 5.45599991083145
v -17.8559997081757 0 5.45599991083145
v -30.7519994974136 0 5.45599991083145
v -30.7519994974136 5.95199990272522 5.45599991083145
v -30.7519994974136 5.95199990272522 7.43999987840652
v -30.7519994974136 0 7.43999987840652
v 21.8239996433258 11.1599998176098 -2.47999995946884
v 21.8239996433258 11.9039998054504 -2.47999995946884
v 19.8399996757507 11.9039998054504 -2.47999995946884
v 19.8399996757507 11.1599998176098 -2.47999995946884
v 27.775999546051 4.7119999229908 -14.3839997649193
v 27.775999546051 7.93599987030029 -14.3839997649193
v 27.775999546051 7.93599987030029 -15.3759997487068
v 27.775999546051 4.7119999229908 -15.3759997487068
v 23.8079996109009 4.7119999229908 -16.3679997324944
v 23.8079996109009 7.93599987030029 -16.3679997324944
v 23.8079996109009 7.93599987030029 -14.3839997649193
v 23.8079996109009 4.7119999229908 -14.3839997649193
v 27.775999546051 7.93599987030029 -16.3679997324944
v 27.775999546051 4.7119999229908 -16.3679997324944
v 23.8079996109009 9.91999983787537 -16.3679997324944
v 27.775999546051 9.91999983787537 -16.3679997324944
v 23.8079996109009 3.96799993515015 -16.3679997324944
v 27.775999546051 3.96799993515015 -16.3679997324944
v 20.8319996595383 3.96799993515015 -16.3679997324944
v 20.8319996595383 9.91999983787537 -16.3679997324944
v 16.8639997243881 7.93599987030029 -16.3679997324944
v 16.8639997243881 9.91999983787537 -16.3679997324944
v 20.8319996595383 7.93599987030029 -16.3679997324944
v 16.8639997243881 3.96799993515015 -16.3679997324944
v 16.8639997243881 4.7119999229908 -16.3679997324944
v 20.8319996595383 4.7119999229908 -16.3679997324944
v 13.8879997730255 3.96799993515015 -16.3679997324944
v 13.8879997730255 9.91999983787537 -16.3679997324944
v 9.91999983787537 7.93599987030029 -16.3679997324944
v 9.91999983787537 9.91999983787537 -16.3679997324944
v 13.8879997730255 7.93599987030029 -16.3679997324944
v 9.91999983787537 3.96799993515015 -16.3679997324944
v 9.91999983787537 4.7119999229908 -16.3679997324944
v 13.8879997730255 4.7119999229908 -16.3679997324944
v 0 3.96799993515015 8.43199986219406
v 0 9.91999983787537 8.43199986219406
v 0 9.91999983787537 9.4239998459816
v 0 3.96799993515015 9.4239998459816
v 4.95999991893768 3.96799993515015 8.43199986219406
v 4.95999991893768 9.91999983787537 8.43199986219406
v 4.95999991893768 3.96799993515015 9.4239998459816
v 4.95999991893768 9.91999983787537 9.4239998459816
v 7.93599987030029 9.91999983787537 9.4239998459816
v 15.8719997406006 9.91999983787537 9.4239998459816
v 17.8559997081757 3.96799993515015 9.4239998459816
v 17.8559997081757 9.91999983787537 9.4239998459816
v 30.7519994974136 9.91999983787537 9.4239998459816
v 21.8239996433258 9.91999983787537 9.4239998459816
v 30.7519994974136 9.91999983787537 17.3599997162819
v 30.7519994974136 9.91999983787537 11.4079998135567
v -1.98399996757507 9.91999983787537 9.4239998459816
v -1.98399996757507 3.96799993515015 9.4239998459816
v 19.8399996757507 9.91999983787537 9.4239998459816
v 19.8399996757507 3.96799993515015 9.4239998459816
v 19.8399996757507 7.93599987030029 9.4239998459816
v 17.8559997081757 7.93599987030029 9.4239998459816
v 19.8399996757507 5.95199990272522 9.4239998459816
v 17.8559997081757 5.95199990272522 9.4239998459816
v -31.7439994812012 1.4879999756813 23.3119996190071
v -31.7439994812012 1.98399996757507 23.3119996190071
v -25.791999578476 1.98399996757507 23.3119996190071
v -25.791999578476 1.4879999756813 23.3119996190071
v -31.7439994812012 1.4879999756813 22.3199996352196
v -31.7439994812012 9.91999983787537 22.3199996352196
v -31.7439994812012 9.91999983787537 23.3119996190071
v -4.95999991893768 4.95999991893768 9.4239998459816
v -4.95999991893768 7.93599987030029 9.4239998459816
v -4.95999991893768 7.93599987030029 6.44799989461899
v -4.95999991893768 4.95999991893768 6.44799989461899
v -12.895999789238 4.95999991893768 6.44799989461899
v -12.895999789238 7.93599987030029 6.44799989461899
v -12.895999789238 7.93599987030029 9.4239998459816
v -12.895999789238 4.95999991893768 9.4239998459816
v 21.8239996433258 1.98399996757507 23.3119996190071
v 21.8239996433258 3.47199994325638 23.3119996190071
v 21.8239996433258 3.47199994325638 21.327999651432
v 21.8239996433258 1.98399996757507 21.327999651432
v 19.8399996757507 1.98399996757507 19.343999683857
v 19.8399996757507 3.96799993515015 19.343999683857
v 17.8559997081757 3.96799993515015 19.343999683857
v 17.8559997081757 1.98399996757507 19.343999683857
v 15.8719997406006 3.96799993515015 19.343999683857
v 15.8719997406006 1.98399996757507 19.343999683857
v 21.8239996433258 0 25.2959995865822
v 21.8239996433258 0 23.3119996190071
v -31.7439994812012 0.991999983787537 22.3199996352196
v -25.791999578476 1.4879999756813 22.3199996352196
v -25.791999578476 0.991999983787537 22.3199996352196
v -31.7439994812012 0.991999983787537 21.327999651432
v -31.7439994812012 9.91999983787537 21.327999651432
v -25.791999578476 1.4879999756813 21.327999651432
v -25.791999578476 0.991999983787537 21.327999651432
v -31.7439994812012 0.495999991893768 21.327999651432
v -25.791999578476 0.495999991893768 21.327999651432
v -31.7439994812012 0.495999991893768 20.3359996676445
v -31.7439994812012 9.91999983787537 20.3359996676445
v -25.791999578476 0 20.3359996676445
v -25.791999578476 0.495999991893768 20.3359996676445
v -24.7999995946884 0.495999991893768 20.3359996676445
v -24.7999995946884 0 20.3359996676445
v -31.7439994812012 0 20.3359996676445
v -31.7439994812012 0 19.343999683857
v -31.7439994812012 9.91999983787537 19.343999683857
v -38.6879993677139 0 19.343999683857
v -38.6879993677139 9.91999983787537 19.343999683857
v -31.4959994852543 0 9.4239998459816
v -31.4959994852543 9.91999983787537 9.4239998459816
v -31.7439994812012 9.91999983787537 9.4239998459816
v -31.7439994812012 0 9.4239998459816
v -1.98399996757507 0 15.3759997487068
v -1.98399996757507 3.96799993515015 15.3759997487068
v -15.8719997406006 0 15.3759997487068
v 1.98399996757507 0 19.343999683857
v 1.98399996757507 3.96799993515015 19.343999683857
v 15.8719997406006 0 19.343999683857
v 20.8319996595383 0 28.2719995379448
v 18.8479996919632 0 30.2559995055199
v 16.8639997243881 0 31.2479994893074
v 14.879999756813 0 31.2479994893074
v 11.9039998054504 0 31.2479994893074
v 7.93599987030029 0 31.2479994893074
v 7.93599987030029 0.495999991893768 31.2479994893074
v 7.93599987030029 0 38.1919993758202
v -2.97599995136261 0 38.1919993758202
v -2.97599995136261 9.91999983787537 38.1919993758202
v -2.97599995136261 0 37.1999993920326
v -2.97599995136261 0 31.2479994893074
v -6.94399988651276 0 23.3119996190071
v -6.94399988651276 1.98399996757507 23.3119996190071
v -2.97599995136261 1.98399996757507 27.2799995541573
v -2.97599995136261 0 27.2799995541573
v -24.7999995946884 0 23.3119996190071
v -24.7999995946884 1.98399996757507 23.3119996190071
v 5.95199990272522 0 29.2639995217323
v 5.95199990272522 1.98399996757507 29.2639995217323
v 5.95199990272522 1.98399996757507 27.2799995541573
v 5.95199990272522 0 27.2799995541573
v 7.93599987030029 0 29.2639995217323
v 7.93599987030029 1.98399996757507 29.2639995217323
v 7.93599987030029 0 27.2799995541573
v 7.93599987030029 1.98399996757507 27.2799995541573
v 10.9119998216629 0 26.2879995703697
v 10.9119998216629 0.495999991893768 26.2879995703697
v 10.9119998216629 0.495999991893768 24.3039996027946
v 10.9119998216629 0 24.3039996027946
v 12.895999789238 0 26.2879995703697
v 12.895999789238 0.495999991893768 26.2879995703697
v 12.895999789238 0 24.3039996027946
v 12.895999789238 0.495999991893768 24.3039996027946
v -24.7999995946884 0.495999991893768 21.327999651432
v -24.7999995946884 0 21.327999651432
v -24.7999995946884 1.4879999756813 21.327999651432
v -24.7999995946884 1.4879999756813 23.3119996190071
v -17.8559997081757 0 7.93599987030029
v -17.8559997081757 9.91999983787537 7.93599987030029
v -17.8559997081757 9.91999983787537 7.43999987840652
v -16.8639997243881 0 9.29999984800816
v -16.8639997243881 9.91999983787537 9.29999984800816
v -17.3599997162819 9.91999983787537 8.92799985408783
v -17.3599997162819 0 8.92799985408783
v -30.7519994974136 9.91999983787537 7.43999987840652
v -30.7519994974136 0 8.67999985814095
v -30.7519994974136 9.91999983787537 8.67999985814095
v -30.9999994933605 9.91999983787537 9.17599985003471
v -30.9999994933605 0 9.17599985003471
v -17.7319997102022 0 8.43199986219406
v -17.7319997102022 9.91999983787537 8.43199986219406
v -15.8719997406006 0 9.4239998459816
v -15.8719997406006 9.91999983787537 9.4239998459816
v -16.3679997324944 9.91999983787537 9.4239998459816
v -16.3679997324944 0 9.4239998459816
v -38.6879993677139 0 9.4239998459816
v -38.6879993677139 9.91999983787537 9.4239998459816
v -16.8639997243881 2.47999995946884 30.2559995055199
v -16.8639997243881 5.95199990272522 30.2559995055199
v -16.8639997243881 5.95199990272522 29.2639995217323
v -16.8639997243881 2.47999995946884 29.2639995217323
v -23.8079996109009 2.47999995946884 29.2639995217323
v -23.8079996109009 5.95199990272522 29.2639995217323
v -23.8079996109009 5.95199990272522 30.2559995055199
v -23.8079996109009 2.47999995946884 30.2559995055199
v -4.95999991893768 0.991999983787537 37.1999993920326
v -4.95999991893768 9.91999983787537 37.1999993920326
v -4.95999991893768 1.98399996757507 31.2479994893074
v -4.95999991893768 0.991999983787537 31.2479994893074
v -4.95999991893768 1.4879999756813 31.2479994893074
v -4.95999991893768 1.4879999756813 37.1999993920326
v -5.95199990272522 1.4879999756813 37.1999993920326
v -5.95199990272522 9.91999983787537 37.1999993920326
v -5.95199990272522 1.98399996757507 31.2479994893074
v -5.95199990272522 1.4879999756813 31.2479994893074
v -5.95199990272522 1.98399996757507 37.1999993920326
v -7.93599987030029 1.98399996757507 37.1999993920326
v -7.93599987030029 9.91999983787537 37.1999993920326
v -7.93599987030029 1.98399996757507 42.1599993109703
v -7.93599987030029 9.91999983787537 42.1599993109703
v -13.8879997730255 1.98399996757507 42.1599993109703
v -13.8879997730255 9.91999983787537 42.1599993109703
v -13.8879997730255 1.98399996757507 37.1999993920326
v -13.8879997730255 9.91999983787537 37.1999993920326
v -13.8879997730255 5.95199990272522 31.2479994893074
v -13.8879997730255 9.91999983787537 31.2479994893074
v -13.8879997730255 5.95199990272522 37.1999993920326
v -13.8879997730255 1.98399996757507 28.2719995379448
v -13.8879997730255 9.91999983787537 28.2719995379448
v -13.8879997730255 1.98399996757507 31.2479994893074
v -16.8639997243881 1.98399996757507 28.2719995379448
v -16.8639997243881 9.91999983787537 28.2719995379448
v -23.8079996109009 5.95199990272522 28.2719995379448
v -23.8079996109009 9.91999983787537 28.2719995379448
v -16.8639997243881 5.95199990272522 28.2719995379448
v -26.7839995622635 1.98399996757507 28.2719995379448
v -26.7839995622635 9.91999983787537 28.2719995379448
v -23.8079996109009 1.98399996757507 28.2719995379448
v -26.7839995622635 1.98399996757507 31.2479994893074
v -26.7839995622635 9.91999983787537 31.2479994893074
v -26.7839995622635 5.95199990272522 37.1999993920326
v -26.7839995622635 9.91999983787537 37.1999993920326
v -26.7839995622635 5.95199990272522 31.2479994893074
v -26.7839995622635 1.98399996757507 42.1599993109703
v -26.7839995622635 9.91999983787537 42.1599993109703
v -26.7839995622635 1.98399996757507 37.1999993920326
v -31.7439994812012 1.98399996757507 42.1599993109703
v -31.7439994812012 9.91999983787537 42.1599993109703
v -31.7439994812012 1.98399996757507 28.2719995379448
v -31.7439994812012 9.91999983787537 28.2719995379448
v -4.95999991893768 9.91999983787537 9.4239998459816
v -12.895999789238 9.91999983787537 9.4239998459816
v -4.95999991893768 3.11771416718619 9.4239998459816
v -12.895999789238 0.850285767963953 9.4239998459816
v 23.8079996109009 11.1599998176098 -2.47999995946884
v 23.8079996109009 11.9039998054504 -2.47999995946884
v 11.9039998054504 9.91999983787537 -10.4159998297691
v 11.9039998054504 11.9039998054504 -10.4159998297691
v 8.92799985408783 11.9039998054504 -10.4159998297691
v 8.92799985408783 9.91999983787537 -10.4159998297691
v 11.9039998054504 9.91999983787537 -13.3919997811317
v 11.9039998054504 11.9039998054504 -13.3919997811317
v 17.3599997162819 9.91999983787537 -13.3919997811317
v 17.3599997162819 11.9039998054504 -13.3919997811317
v 8.92799985408783 11.9039998054504 -4.46399992704391
v 8.92799985408783 9.91999983787537 -4.46399992704391
v 8.92799985408783 11.1599998176098 -4.46399992704391
v 17.3599997162819 11.9039998054504 -4.46399992704391
v 17.3599997162819 11.1599998176098 -4.46399992704391
v 17.3599997162819 11.1599998176098 -13.3919997811317
v 23.8079996109009 11.6559998095036 -5.45599991083145
v 23.8079996109009 11.9039998054504 -5.45599991083145
v 21.8239996433258 11.9039998054504 -5.45599991083145
v 21.8239996433258 11.6559998095036 -5.45599991083145
v 23.8079996109009 11.6559998095036 -4.46399992704391
v 23.8079996109009 11.9039998054504 -4.46399992704391
v 21.8239996433258 11.9039998054504 -4.46399992704391
v 21.8239996433258 11.6559998095036 -4.46399992704391
v 21.8239996433258 11.1599998176098 -4.46399992704391
v 23.8079996109009 11.1599998176098 -4.46399992704391
v 17.3599997162819 9.91999983787537 5.45599991083145
v 17.3599997162819 11.1599998176098 5.45599991083145
v 19.343999683857 11.1599998176098 5.45599991083145
v 19.343999683857 9.91999983787537 5.45599991083145
v 8.92799985408783 11.1599998176098 -2.47999995946884
v 8.92799985408783 9.91999983787537 -2.47999995946884
v 19.343999683857 9.91999983787537 -13.3919997811317
v 19.343999683857 11.1599998176098 -13.3919997811317
v 25.791999578476 9.91999983787537 -2.47999995946884
v 25.791999578476 11.1599998176098 -2.47999995946884
v 25.791999578476 11.1599998176098 -4.46399992704391
v 25.791999578476 9.91999983787537 -4.46399992704391
v 19.343999683857 11.6559998095036 -13.3919997811317
v 19.343999683857 11.6559998095036 -4.46399992704391
v 19.343999683857 11.1599998176098 -4.46399992704391
v 25.791999578476 9.91999983787537 -13.3919997811317
v 25.791999578476 11.6559998095036 -13.3919997811317
v 25.791999578476 9.91999983787537 -10.4159998297691
v 25.791999578476 11.6559998095036 -10.4159998297691
v 28.7679995298386 9.91999983787537 -10.4159998297691
v 28.7679995298386 11.6559998095036 -10.4159998297691
v 28.7679995298386 9.91999983787537 -6.44799989461899
v 28.7679995298386 11.6559998095036 -6.44799989461899
v 25.791999578476 9.91999983787537 -6.44799989461899
v 25.791999578476 11.6559998095036 -6.44799989461899
v 25.791999578476 11.6559998095036 -4.46399992704391
v 25.791999578476 11.9039998054504 -2.47999995946884
v 25.791999578476 9.91999983787537 1.4879999756813
v 25.791999578476 11.9039998054504 1.4879999756813
v 28.7679995298386 9.91999983787537 1.4879999756813
v 28.7679995298386 11.9039998054504 1.4879999756813
v 28.7679995298386 9.91999983787537 5.45599991083145
v 28.7679995298386 11.9039998054504 5.45599991083145
v 19.343999683857 11.9039998054504 5.45599991083145
v 19.343999683857 11.1599998176098 -2.47999995946884
v 19.343999683857 11.9039998054504 -2.47999995946884
v 17.3599997162819 11.9039998054504 5.45599991083145
v 17.3599997162819 11.9039998054504 -2.47999995946884
v 17.3599997162819 11.1599998176098 -2.47999995946884
v 8.92799985408783 9.91999983787537 5.45599991083145
v 8.92799985408783 11.9039998054504 5.45599991083145
v 8.92799985408783 11.9039998054504 -2.47999995946884
v 9.91999983787537 4.7119999229908 -15.3759997487068
v 9.91999983787537 7.93599987030029 -15.3759997487068
v 9.91999983787537 7.93599987030029 -14.3839997649193
v 9.91999983787537 4.7119999229908 -14.3839997649193
v 13.8879997730255 4.7119999229908 -14.3839997649193
v 13.8879997730255 7.93599987030029 -14.3839997649193
v 16.8639997243881 7.93599987030029 -14.3839997649193
v 16.8639997243881 4.7119999229908 -14.3839997649193
v 20.8319996595383 4.7119999229908 -14.3839997649193
v 20.8319996595383 7.93599987030029 -14.3839997649193
v 19.8399996757507 7.93599987030029 7.43999987840652
v 19.8399996757507 5.95199990272522 7.43999987840652
v 17.8559997081757 5.95199990272522 7.43999987840652
v 17.8559997081757 7.93599987030029 7.43999987840652
v 0 3.47199994325638 3.47199994325638
v 0 7.93599987030029 3.47199994325638
v 2.97599995136261 3.47199994325638 3.47199994325638
v 2.97599995136261 3.47199994325638 -0.495999991893768
v 2.97599995136261 3.47199994325638 -3.47199994325638
v 2.97599995136261 3.47199994325638 -7.43999987840652
v 0 7.93599987030029 -7.43999987840652
v 0 3.47199994325638 -7.43999987840652
v 6.94399988651276 3.96799993515015 -12.3999997973442
v 6.94399988651276 9.91999983787537 -12.3999997973442
v 6.94399988651276 9.91999983787537 -7.43999987840652
v 6.94399988651276 3.96799993515015 -7.43999987840652
v 9.91999983787537 3.96799993515015 -12.3999997973442
v 9.91999983787537 9.91999983787537 -12.3999997973442
v 9.91999983787537 3.96799993515015 -14.3839997649193
v 9.91999983787537 9.91999983787537 -14.3839997649193
v 13.8879997730255 9.91999983787537 -14.3839997649193
v 13.8879997730255 3.96799993515015 -14.3839997649193
v 16.8639997243881 3.96799993515015 -14.3839997649193
v 16.8639997243881 9.91999983787537 -14.3839997649193
v 20.8319996595383 9.91999983787537 -14.3839997649193
v 20.8319996595383 3.96799993515015 -14.3839997649193
v 23.8079996109009 3.96799993515015 -14.3839997649193
v 23.8079996109009 9.91999983787537 -14.3839997649193
v 27.775999546051 9.91999983787537 -14.3839997649193
v 27.775999546051 3.96799993515015 -14.3839997649193
v 27.775999546051 3.96799993515015 -12.3999997973442
v 27.775999546051 9.91999983787537 -12.3999997973442
v 30.7519994974136 3.96799993515015 -12.3999997973442
v 30.7519994974136 9.91999983787537 -12.3999997973442
v 30.7519994974136 3.96799993515015 -4.46399992704391
v 30.7519994974136 9.91999983787537 -4.46399992704391
v 27.775999546051 3.96799993515015 -4.46399992704391
v 27.775999546051 9.91999983787537 -4.46399992704391
v 27.775999546051 3.96799993515015 -0.495999991893768
v 27.775999546051 9.91999983787537 -0.495999991893768
v 30.7519994974136 3.96799993515015 -0.495999991893768
v 30.7519994974136 9.91999983787537 -0.495999991893768
v 30.7519994974136 9.91999983787537 7.43999987840652
v 21.8239996433258 9.91999983787537 7.43999987840652
v 19.8399996757507 3.96799993515015 7.43999987840652
v 19.8399996757507 9.91999983787537 7.43999987840652
v 17.8559997081757 9.91999983787537 7.43999987840652
v 17.8559997081757 3.96799993515015 7.43999987840652
v 15.8719997406006 9.91999983787537 7.43999987840652
v 7.93599987030029 9.91999983787537 7.43999987840652
v 6.94399988651276 3.96799993515015 7.43999987840652
v 6.94399988651276 9.91999983787537 7.43999987840652
v 6.94399988651276 3.96799993515015 3.47199994325638
v 6.94399988651276 9.91999983787537 3.47199994325638
v 5.95199990272522 9.91999983787537 -7.43999987840652
v 5.95199990272522 9.91999983787537 3.47199994325638
v -4.95999991893768 3.47199994325638 4.46399992704391
v -4.95999991893768 9.91999983787537 4.46399992704391
v -4.95999991893768 9.91999983787537 3.47199994325638
v -4.95999991893768 3.47199994325638 3.47199994325638
v -12.895999789238 3.47199994325638 3.47199994325638
v -12.895999789238 9.91999983787537 3.47199994325638
v -12.895999789238 9.91999983787537 4.46399992704391
v -12.895999789238 3.47199994325638 4.46399992704391
v -12.895999789238 3.96799993515015 4.46399992704391
v -4.95999991893768 3.96799993515015 4.46399992704391
v -2.97599995136261 2.97599995136261 -9.4239998459816
v -2.97599995136261 9.91999983787537 -9.4239998459816
v -4.95999991893768 9.91999983787537 -11.4079998135567
v -4.95999991893768 2.97599995136261 -11.4079998135567
v -6.94399988651276 2.97599995136261 -5.45599991083145
v -6.94399988651276 3.47199994325638 -5.45599991083145
v -2.97599995136261 3.47199994325638 -9.4239998459816
v -4.95999991893768 2.47999995946884 -11.4079998135567
v -7.93599987030029 9.91999983787537 -14.3839997649193
v -7.93599987030029 2.47999995946884 -14.3839997649193
v -8.92799985408783 2.47999995946884 -7.43999987840652
v -8.92799985408783 2.97599995136261 -7.43999987840652
v -12.895999789238 9.91999983787537 -14.3839997649193
v -12.895999789238 2.47999995946884 -14.3839997649193
v 0 9.91999983787537 -7.43999987840652
v -0.991999983787537 9.91999983787537 -7.43999987840652
v -0.991999983787537 3.47199994325638 -7.43999987840652
v -3.96799993515015 3.47199994325638 3.47199994325638
v -3.96799993515015 9.91999983787537 3.47199994325638
v 0 9.91999983787537 3.47199994325638
v -17.8559997081757 3.47199994325638 3.47199994325638
v -17.8559997081757 9.91999983787537 3.47199994325638
v -8.92799985408783 0 -0.495999991893768
v -8.92799985408783 3.47199994325638 -0.495999991893768
v -5.45599991083145 3.47199994325638 -3.96799993515015
v -5.45599991083145 0 -3.96799993515015
v -16.4919997304678 0 -0.495999991893768
v -16.4919997304678 3.47199994325638 -0.495999991893768
v -16.8639997243881 0 -0.371999993920326
v -16.8639997243881 3.47199994325638 -0.371999993920326
v -30.7519994974136 0 3.47199994325638
v -30.7519994974136 9.91999983787537 3.47199994325638
v -30.7519994974136 9.91999983787537 5.45599991083145
v -33.7279994487762 0 3.47199994325638
v -33.7279994487762 9.91999983787537 3.47199994325638
v -33.7279994487762 0 -4.46399992704391
v -33.7279994487762 9.91999983787537 -4.46399992704391
v -32.7359994649887 0 -7.43999987840652
v -32.7359994649887 9.91999983787537 -7.43999987840652
v -10.9119998216629 0 -9.4239998459816
v -10.9119998216629 2.47999995946884 -9.4239998459816
v -12.895999789238 2.47999995946884 -9.4239998459816
v -12.895999789238 0 -9.4239998459816
v -8.92799985408783 0 -7.43999987840652
v -6.94399988651276 0 -5.45599991083145
v -17.8559997081757 0 3.47199994325638
v -17.8559997081757 3.47199994325638 0.867999985814095
v -17.8559997081757 0 0.867999985814095
v -17.6079997122288 0 0.247999995946884
v -17.6079997122288 3.47199994325638 0.247999995946884
v -17.111999720335 3.47199994325638 -0.247999995946884
v -17.111999720335 0 -0.247999995946884
v -17.7319997102022 0 0.495999991893768
v -17.7319997102022 3.47199994325638 0.495999991893768
v -12.895999789238 1.98399996757507 -9.4239998459816
v -15.8719997406006 1.98399996757507 -9.4239998459816
v -15.8719997406006 0 -9.4239998459816
v -15.8719997406006 1.4879999756813 -9.4239998459816
v -18.8479996919632 1.4879999756813 -9.4239998459816
v -18.8479996919632 0 -9.4239998459816
v -18.8479996919632 0.991999983787537 -9.4239998459816
v -21.8239996433258 0.991999983787537 -9.4239998459816
v -21.8239996433258 0 -9.4239998459816
v -30.007999509573 0 -11.1599998176098
v -30.007999509573 9.91999983787537 -11.1599998176098
v -31.7439994812012 9.91999983787537 -9.4239998459816
v -31.7439994812012 0 -9.4239998459816
v -17.8559997081757 9.91999983787537 5.45599991083145
v -21.8239996433258 0.495999991893768 -9.4239998459816
v -25.791999578476 0.495999991893768 -9.4239998459816
v -25.791999578476 0 -9.4239998459816
v -30.007999509573 0.495999991893768 -11.1599998176098
v -12.895999789238 3.96799993515015 5.45599991083145
v -12.895999789238 4.46399992704391 5.45599991083145
v -4.95999991893768 4.46399992704391 5.45599991083145
v -4.95999991893768 3.96799993515015 5.45599991083145
v -12.895999789238 9.91999983787537 5.45599991083145
v -4.95999991893768 9.91999983787537 5.45599991083145
v -4.95999991893768 4.46399992704391 6.44799989461899
v -4.95999991893768 9.91999983787537 6.44799989461899
v -12.895999789238 9.91999983787537 6.44799989461899
v -12.895999789238 4.46399992704391 6.44799989461899
v -12.895999789238 1.98399996757507 -14.3839997649193
v -15.8719997406006 9.91999983787537 -14.3839997649193
v -15.8719997406006 1.98399996757507 -14.3839997649193
v -15.8719997406006 1.4879999756813 -14.3839997649193
v -18.8479996919632 9.91999983787537 -14.3839997649193
v -18.8479996919632 1.4879999756813 -14.3839997649193
v -18.8479996919632 0.991999983787537 -14.3839997649193
v -21.8239996433258 9.91999983787537 -14.3839997649193
v -21.8239996433258 0.991999983787537 -14.3839997649193
v -28.7679995298386 0.495999991893768 -12.3999997973442
v -28.7679995298386 9.91999983787537 -12.3999997973442
v -26.7839995622635 0.495999991893768 -13.3919997811317
v -26.7839995622635 9.91999983787537 -13.3919997811317
v -23.8079996109009 0.495999991893768 -14.3839997649193
v -23.8079996109009 9.91999983787537 -14.3839997649193
v -21.8239996433258 0.495999991893768 -14.3839997649193
v -23.8079996109009 1.98399996757507 29.2639995217323
v -16.8639997243881 1.98399996757507 29.2639995217323
v -16.8639997243881 1.98399996757507 30.2559995055199
v -23.8079996109009 1.98399996757507 30.2559995055199
v -16.8639997243881 1.98399996757507 31.2479994893074
v -16.8639997243881 5.95199990272522 31.2479994893074
v -23.8079996109009 1.98399996757507 31.2479994893074
v -23.8079996109009 5.95199990272522 31.2479994893074
v 21.8239996433258 3.96799993515015 21.327999651432
v 19.8399996757507 3.96799993515015 21.327999651432
v 19.8399996757507 1.98399996757507 21.327999651432
v 19.8399996757507 1.98399996757507 23.3119996190071
v 19.8399996757507 0 23.3119996190071
v 15.8719997406006 0 21.327999651432
v 15.8719997406006 1.98399996757507 21.327999651432
v 17.8559997081757 0 21.327999651432
v 17.8559997081757 1.98399996757507 21.327999651432
v 17.8559997081757 0 23.3119996190071
v 17.8559997081757 1.98399996757507 23.3119996190071
v 21.8239996433258 5.95199990272522 -1.4879999756813
v 21.8239996433258 7.93599987030029 -1.4879999756813
v 21.8239996433258 7.93599987030029 -2.47999995946884
v 21.8239996433258 5.95199990272522 -2.47999995946884
v 12.895999789238 3.96799993515015 -7.43999987840652
v 12.895999789238 5.95199990272522 -7.43999987840652
v 12.895999789238 5.95199990272522 -9.4239998459816
v 12.895999789238 3.96799993515015 -9.4239998459816
v 14.879999756813 3.96799993515015 -7.43999987840652
v 14.879999756813 5.95199990272522 -7.43999987840652
v 14.879999756813 3.96799993515015 -9.4239998459816
v 14.879999756813 5.95199990272522 -9.4239998459816
v 21.8239996433258 3.96799993515015 -3.47199994325638
v 21.8239996433258 5.95199990272522 -3.47199994325638
v 21.8239996433258 5.95199990272522 -4.46399992704391
v 21.8239996433258 3.96799993515015 -4.46399992704391
v 19.8399996757507 3.96799993515015 -3.47199994325638
v 19.8399996757507 5.95199990272522 -3.47199994325638
v 19.8399996757507 3.96799993515015 -2.47999995946884
v 19.8399996757507 5.95199990272522 -2.47999995946884
v 21.8239996433258 7.93599987030029 -3.47199994325638
v 23.8079996109009 7.93599987030029 -3.47199994325638
v 23.8079996109009 5.95199990272522 -3.47199994325638
v 23.8079996109009 3.96799993515015 -3.47199994325638
v 23.8079996109009 7.93599987030029 -2.47999995946884
v 23.8079996109009 3.96799993515015 -2.47999995946884
v 23.8079996109009 3.96799993515015 -4.46399992704391
v 23.8079996109009 5.95199990272522 -4.46399992704391
v 23.8079996109009 3.96799993515015 -5.45599991083145
v 23.8079996109009 5.95199990272522 -5.45599991083145
v 21.8239996433258 3.96799993515015 -5.45599991083145
v 21.8239996433258 5.95199990272522 -5.45599991083145
v 19.8399996757507 3.96799993515015 -1.4879999756813
v 19.8399996757507 5.95199990272522 -1.4879999756813
v 21.8239996433258 3.96799993515015 -1.4879999756813
v 23.8079996109009 3.96799993515015 -1.4879999756813
v 23.8079996109009 7.93599987030029 -1.4879999756813
v 19.8399996757507 0 25.2959995865822
v -5.95199990272522 0 24.3039996027946
v 17.3599997162819 3.96799993515015 -13.3919997811317
v 11.9039998054504 3.96799993515015 -13.3919997811317
v 11.9039998054504 3.96799993515015 -10.4159998297691
v 8.92799985408783 3.96799993515015 -9.4239998459816
v 8.92799985408783 3.96799993515015 -4.46399992704391
v 17.3599997162819 3.96799993515015 -4.46399992704391
v 8.92799985408783 3.96799993515015 -10.4159998297691
v 8.92799985408783 3.96799993515015 -2.47999995946884
v 19.343999683857 3.96799993515015 -13.3919997811317
v 19.343999683857 3.96799993515015 -4.46399992704391
v 19.343999683857 3.96799993515015 -2.47999995946884
v 17.3599997162819 3.96799993515015 5.45599991083145
v 19.343999683857 3.96799993515015 5.45599991083145
v 17.3599997162819 3.96799993515015 -2.47999995946884
v 25.791999578476 3.96799993515015 -2.47999995946884
v 25.791999578476 3.96799993515015 -4.46399992704391
v 25.791999578476 3.96799993515015 -10.4159998297691
v 25.791999578476 3.96799993515015 -13.3919997811317
v 28.7679995298386 3.96799993515015 -6.44799989461899
v 28.7679995298386 3.96799993515015 -10.4159998297691
v 25.791999578476 3.96799993515015 -6.44799989461899
v 25.791999578476 3.96799993515015 1.4879999756813
v 28.7679995298386 3.96799993515015 5.45599991083145
v 28.7679995298386 3.96799993515015 1.4879999756813
v 8.92799985408783 3.96799993515015 5.45599991083145
v 38.6879993677139 3.96799993515015 -16.3679997324944
v 38.6879993677139 3.96799993515015 -42.1599993109703
v -36.7039994001389 3.96799993515015 -16.3679997324944
v -36.7039994001389 3.96799993515015 -42.1599993109703
v 6.94399988651276 3.96799993515015 5.45599991083145
v -3.96799993515015 3.47199994325638 -2.47999995946884
v -2.97599995136261 9.91999983787537 31.2479994893074
v -3.96799993515015 9.91999983787537 31.2479994893074
v 20.8319996595383 9.91999983787537 28.2719995379448
v 21.8239996433258 9.91999983787537 25.2959995865822
v 14.879999756813 9.91999983787537 31.2479994893074
v 16.8639997243881 9.91999983787537 31.2479994893074
v 18.8479996919632 9.91999983787537 30.2559995055199
v 21.8239996433258 9.91999983787537 19.343999683857
v 11.9039998054504 9.91999983787537 31.2479994893074
v 7.93599987030029 9.91999983787537 31.2479994893074
v 12.895999789238 9.91999983787537 24.3039996027946
v 10.9119998216629 9.91999983787537 26.2879995703697
v 10.9119998216629 9.91999983787537 24.3039996027946
v 12.895999789238 9.91999983787537 26.2879995703697
v -1.98399996757507 9.91999983787537 15.3759997487068
v 1.98399996757507 9.91999983787537 19.343999683857
v -25.791999578476 9.91999983787537 22.3199996352196
v -25.791999578476 9.91999983787537 23.3119996190071
v 19.8399996757507 9.91999983787537 21.327999651432
v 19.8399996757507 9.91999983787537 19.343999683857
v 21.8239996433258 9.91999983787537 21.327999651432
v 19.8399996757507 9.91999983787537 23.3119996190071
v 21.8239996433258 9.91999983787537 23.3119996190071
v 17.8559997081757 9.91999983787537 21.327999651432
v 17.8559997081757 9.91999983787537 19.343999683857
v 17.8559997081757 9.91999983787537 23.3119996190071
v 15.8719997406006 9.91999983787537 21.327999651432
v 15.8719997406006 9.91999983787537 19.343999683857
v 19.8399996757507 9.91999983787537 25.2959995865822
v 7.93599987030029 9.91999983787537 29.2639995217323
v 5.95199990272522 9.91999983787537 27.2799995541573
v 7.93599987030029 9.91999983787537 27.2799995541573
v 5.95199990272522 9.91999983787537 29.2639995217323
v -25.791999578476 9.91999983787537 21.327999651432
v -25.791999578476 9.91999983787537 20.3359996676445
v -15.8719997406006 9.91999983787537 15.3759997487068
v -2.97599995136261 9.91999983787537 27.2799995541573
v -5.95199990272522 9.91999983787537 24.3039996027946
v -6.94399988651276 9.91999983787537 23.3119996190071
v -24.7999995946884 9.91999983787537 20.3359996676445
v -24.7999995946884 9.91999983787537 23.3119996190071
v -24.7999995946884 9.91999983787537 21.327999651432
v -4.95999991893768 9.91999983787537 31.2479994893074
v -5.95199990272522 9.91999983787537 31.2479994893074
v 21.8239996433258 11.1599998176098 -3.47199994325638
v 19.8399996757507 11.1599998176098 -3.47199994325638
v 23.8079996109009 11.1599998176098 -3.47199994325638
v 6.94399988651276 9.91999983787537 5.45599991083145
v -8.92799985408783 9.91999983787537 -7.43999987840652
v -6.94399988651276 9.91999983787537 -5.45599991083145
v -12.895999789238 9.91999983787537 -9.4239998459816
v -10.9119998216629 9.91999983787537 -9.4239998459816
v -3.96799993515015 9.91999983787537 -2.47999995946884
v -17.7319997102022 9.91999983787537 0.495999991893768
v -17.8559997081757 9.91999983787537 0.867999985814095
v -17.6079997122288 9.91999983787537 0.247999995946884
v -17.111999720335 9.91999983787537 -0.247999995946884
v -16.8639997243881 9.91999983787537 -0.371999993920326
v -16.4919997304678 9.91999983787537 -0.495999991893768
v -8.92799985408783 9.91999983787537 -0.495999991893768
v -5.45599991083145 9.91999983787537 -3.96799993515015
v -25.791999578476 9.91999983787537 -9.4239998459816
v -15.8719997406006 9.91999983787537 -9.4239998459816
v -18.8479996919632 9.91999983787537 -9.4239998459816
v -21.8239996433258 9.91999983787537 -9.4239998459816
v 19.8399996757507 11.9039998054504 -1.4879999756813
v 21.8239996433258 11.9039998054504 -1.4879999756813
v 14.879999756813 11.9039998054504 -9.4239998459816
v 12.895999789238 11.9039998054504 -7.43999987840652
v 12.895999789238 11.9039998054504 -9.4239998459816
v 14.879999756813 11.9039998054504 -7.43999987840652
v 23.8079996109009 11.9039998054504 -1.4879999756813
v 8.92799985408783 11.9039998054504 -9.4239998459816
vn 1 0 0
vn -1 0 0
vn 0 0 -1
vn 0 0 1
vn 0.948683298050514 0 0.316227766016838
vn 0.216930457818656 0 -0.976187060183953
vn 0.919145030018058 0 -0.393919298579168
vn 0.52999894000318 0 -0.847998304005088
vn 0.6 0 0.8
vn 0.707106781186548 0 -0.707106781186548
vn 0.371390676354104 0 0.928476690885259
vn 0.989949493661167 0 -0.14142135623731
vn 0.707106781186547 0 -0.707106781186547
vn 0.948683298050514 0 0.316227766016838
vn 0.707106781186547 0 0.707106781186547
vn 0.447213595499958 0 0.894427190999916
vn -0.707106781186547 0 0.707106781186547
vn 0.6 0 -0.8
vn -0.894427190999916 0 -0.447213595499958
vn 0.970142500145332 0 -0.242535625036333
vn 0.8 0 -0.6
vn 0.242535625036333 0 -0.970142500145332
vn -0.447213595499958 0 -0.894427190999916
vn 0.316227766016838 0 0.948683298050514
vn -0.948683298050514 0 -0.316227766016838
vn 0.894427190999916 0 0.447213595499958
vn -0.707106781186547 0 -0.707106781186547
vn 0.380749805254295 0 -0.924678098474716
vn -0.316227766016838 0 -0.948683298050514
vn 0 1 0
vn 0.274721127897378 0.961523947640823 0
vn 0 -1 0
vt 12.5 -1
vt 12.5 2
vt 0 2
vt 0 -1
vt 37 -1
vt 37 2
vt 1.117188 -2.375
vt 1.117188 0
vt 0.8671875 0
vt 0.8671875 -2.375
vt 0.25 -0.375
vt 0.25 0
vt 0 0
vt 0 -0.375
vt 1.5 -0.125
vt 1.5 0
vt 0 -0.125
vt 1 -1
vt 1 0
vt 0.25 -1
vt 0.75 -1
vt 0.75 0
vt 1.5 -1
vt 2.65625 -1
vt 2.65625 0
vt 0.65625 0
vt 0.65625 -1
vt 2 -1
vt 2 0
vt 0.15625 0
vt 0.15625 -1
vt 0.5625 -1
vt 0.5625 0
vt 0.0625 0
vt 0.0625 -1
vt 1.117188 -1
vt 0.6171875 0
vt 0.6171875 -1
vt 1.25 -1
vt 1.25 0
vt 1.046875 -1.75
vt 1.046875 0
vt 0.2578125 0
vt 0.2578125 -1.75
vt 1.070313 -1.75
vt 1.070313 0
vt 0.28125 0
vt 0.28125 -1.75
vt 2.304688 -0.125
vt 2.304688 0
vt 1.90625 -0.125
vt 1.90625 0
vt 1.640625 -2.125
vt 1.640625 0
vt 0.640625 0
vt 0.640625 -2.125
vt 2.359375 -0.125
vt 2.359375 0
vt 1.765625 -1.875
vt 1.765625 0
vt 0.515625 0
vt 0.515625 -1.875
vt 9.25 -0.125
vt 9.25 0
vt 7 0
vt 7 -0.125
vt 2.25 -1.625
vt 2.25 0
vt 0.75 -1.625
vt 1.25 -1.625
vt 2.125 -0.125
vt 2.125 0
vt 1.445313 -2
vt 1.445313 0
vt 0.1015625 0
vt 0.1015625 -2
vt 1.765625 -0.125
vt 1.117188 -2.25
vt 0.1171875 0
vt 0.1171875 -2.25
vt 1.75 -0.125
vt 1.75 0
vt 1.867188 -2.375
vt 1.867188 0
vt 0.5625 -1.5
vt 0.0625 -1.5
vt 0.8671875 -1.5
vt 0.3671875 0
vt 0.3671875 -1.5
vt 0.5 -1
vt 0.5 -0.8125
vt 0 -0.8125
vt 3.5 -0.8125
vt 3.5 0
vt 3.25 0
vt 3.25 -0.8125
vt 0.5 0
vt 0.25 -0.8125
vt 1 -0.5
vt 0 -0.5
vt 1 -0.1875
vt 0 -0.1875
vt 0.75 -1.5
vt 0 -1.5
vt 11.5 -1.5
vt 11.5 0
vt 2.75 -1.5
vt 2.75 0
vt 0.25 -1.5
vt 0.8203125 -1.5
vt 0.8203125 0
vt 0.5703125 0
vt 0.5703125 -1.5
vt 1.3125 -1.5
vt 1.3125 0
vt 0.3125 0
vt 0.3125 -1.5
vt 1.5625 -1.5
vt 1.5625 0
vt 0.8125 0
vt 0.8125 -1.5
vt 2 -0.5
vt 0.6171875 -1.5
vt 0.1171875 -1.5
vt 2.25 -1
vt 2.25 -0.5
vt 0.5 -0.5
vt 0.5 -1.5
vt 0.65625 -1.5
vt 0.15625 -1.5
vt 1.117188 -0.5
vt 0.6171875 -0.5
vt 2.25 -0.125
vt 0.75 -0.125
vt 0.28125 -2.125
vt 0.03125 0
vt 0.03125 -2.125
vt 0.8125 -0.75
vt 0.0625 -0.75
vt 1.265625 -0.75
vt 1.265625 0
vt 0.515625 -0.75
vt 0.7578125 -0.375
vt 0.7578125 0
vt 0.2578125 -0.375
vt 5 -0.5
vt 5 0
vt 4.5 0
vt 4.5 -0.5
vt 4 0
vt 4 -0.5
vt 1.257813 -0.875
vt 1.257813 0
vt 0.7578125 -0.875
vt 0.53125 -2.25
vt 0.53125 0
vt 0.28125 -2.25
vt 0.25 -0.125
vt 0.78125 -2.375
vt 0.78125 0
vt 0.53125 -2.375
vt 0.28125 -2.5
vt 0.03125 -2.5
vt 2.28125 -2.5
vt 2.28125 0
vt 0.53125 -2.5
vt 0.875 -2.5
vt 0.875 0
vt 0.8125 -2.5
vt 3.5625 0
vt 3.5625 1
vt 7.164063 -1
vt 7.164063 0
vt 5.75 0
vt 5.75 -1
vt 4 -1
vt 1.070313 -0.75
vt 0.28125 -0.75
vt 1.226563 -0.625
vt 1.226563 0
vt 0.515625 -0.625
vt 1.617188 -0.5
vt 1.617188 0
vt 1.054688 0
vt 1.054688 -0.5
vt 0.6015625 -0.375
vt 0.6015625 0
vt 0.1015625 -0.375
vt 1.351563 -0.25
vt 1.351563 0
vt 0.6015625 -0.25
vt 1.640625 -0.125
vt 0.640625 -0.125
vt 2.390625 -0.125
vt 2.390625 0
vt 2.867188 -2.5
vt 2.867188 0
vt 0.1171875 -2.5
vt 0.6171875 -2.5
vt 0.3671875 -2.5
vt 1.414063 -0.5
vt 1.414063 0
vt 0.7578125 -0.5
vt 0.2578125 -0.5
vt 0.5 -0.125
vt 0.5 -0.375
vt 1.5 -0.5
vt 0.6875 -2.5
vt 0.6875 0
vt 0.5625 -2.5
vt 0.71875 -2.5
vt 0.71875 0
vt 5.78125 -1
vt 5.78125 0
vt 2.53125 0
vt 2.53125 -1
vt 1.007813 -2.5
vt 1.007813 0
vt 0.8671875 -2.5
vt 1.0625 -2.5
vt 1.0625 0
vt 0.9375 0
vt 0.9375 -2.5
vt 0.9765625 -2.5
vt 0.9765625 0
vt 0.8203125 -2.5
vt 0.6953125 0
vt 0.6953125 -2.5
vt 0.0546875 0
vt 0.0546875 -2.5
vt 1.078125 -2.5
vt 1.078125 0
vt 2.53125 -2.5
vt 1.914063 -2.5
vt 1.914063 0
vt 0.1640625 0
vt 0.1640625 -2.5
vt 0.25 -0.25
vt 0 -0.25
vt 0.5 -0.875
vt 0.25 -0.875
vt 0.3671875 -2.25
vt 0.6171875 -2.125
vt 0.3671875 -2.125
vt 1.117188 -2
vt 0.6171875 -2
vt 1.867188 -2
vt 1.875 -2
vt 1.875 0
vt 0.375 0
vt 0.375 -2
vt 1.375 -2
vt 1.375 0
vt 0.125 0
vt 0.125 -2
vt 1.875 -1
vt 0.375 -1
vt 0.625 0
vt 0.625 -2
vt 0.875 -2
vt 2.625 -1
vt 2.625 0
vt 0.875 -1
vt 0.78125 -2
vt 0.03125 -2
vt 2.28125 -1
vt 0.78125 -1
vt 1.28125 -2
vt 1.28125 0
vt 2.242188 -2
vt 2.242188 0
vt 0.9921875 0
vt 0.9921875 -2
vt 3.664063 -2
vt 3.664063 0
vt 0.1640625 -2
vt 1.53125 -2
vt 1.53125 0
vt 0.28125 -2
vt 2 -0.4642857
vt 0 -1.035714
vt 1.0625 -1.5
vt 0.3125 -1.714286
vt 1.5625 -2.285714
vt 0.75 -0.5
vt 1.375 -1
vt 1.375 -0.5
vt 2.125 -1
vt 2.125 -0.8125
vt 2.25 -0.8125
vt 0.5 -0.9375
vt 0 -0.9375
vt 0.25 -0.9375
vt 0.75 -0.6875
vt 0.25 -0.6875
vt 0.5 -0.6875
vt 0 -0.6875
vt 2.25 -0.875
vt 0 -0.875
vt 1.625 -1
vt 1.625 -0.5625
vt 0 -0.5625
vt 0.75 -0.5625
vt 1 -0.5625
vt 0.9140625 -1
vt 0.9140625 -0.5625
vt 0.1640625 -0.5625
vt 0.1640625 -1
vt 0.5 -0.5625
vt 0.625 -1
vt 0.625 -0.875
vt 1.265625 -1
vt 1.265625 -0.5
vt 0.515625 -0.5
vt 0.515625 -1
vt 1.992188 -1
vt 1.992188 -0.5
vt 0.9921875 -0.5
vt 0.9921875 -1
vt 2.375 -1
vt 2.375 -0.5
vt 2 -0.8125
vt 0.125 -1
vt 0.125 -0.8125
vt 2.125 -0.5
vt 1 -0.8125
vt 0.75 -0.8125
vt 1.25 -0.8125
vt 0.75 -1.125
vt 0 -1.125
vt 3 -0.125
vt 3 0
vt 2 -0.125
vt 1 -0.125
vt 1.75 -1.125
vt 1 -1.125
vt 1.25 -1.125
vt 0.5 -1.125
vt 1.75 -1.5
vt 1 -1.5
vt 1.25 -1.5
vt 2.75 -1
vt 2.75 -0.5
vt 1.75 -0.5
vt 1.75 -1
vt 2.75 -0.1875
vt 1.75 -0.1875
vt 4.5 -1
vt 3.5 -0.5
vt 3.5 -1
vt 4.5 -0.1875
vt 3.5 -0.1875
vt 2 -1.5
vt 0.9140625 -1.5
vt 0.9140625 0
vt 0.1640625 -1.5
vt 2.25 -1.5
vt 1.25 -0.5
vt 1 -1.625
vt 0.28125 -1.625
vt 0.03125 -1.625
vt 1.210938 -1.75
vt 1.210938 0
vt 0.5 -1.75
vt 1.414063 -0.125
vt 1.8125 -1.875
vt 1.8125 0
vt 0.75 -1.875
vt 2.085938 -1.875
vt 2.085938 0
vt 0.8359375 0
vt 0.8359375 -1.875
vt 0.5 -1.625
vt 0.25 -1.625
vt 0 -1.625
vt 0.9140625 -1.625
vt 0.203125 0
vt 0.203125 -1.625
vt 2.132813 -1.625
vt 2.132813 0
vt 0.8828125 0
vt 0.8828125 -1.625
vt 1.234375 -0.875
vt 1.234375 0
vt 1.90625 -0.875
vt 0.1015625 -0.875
vt 1.367188 -2.5
vt 1.367188 0
vt 1.25 -2.5
vt 0.5 -2.5
vt 2.75 -2.5
vt 0.75 -2.5
vt 1.039063 -2.5
vt 1.039063 0
vt 0.25 -2.5
vt 1 -0.625
vt 0.5 -0.625
vt 0.7109375 -0.625
vt 0.7109375 0
vt 0 -0.625
vt 0.7109375 -0.75
vt 0 -0.75
vt 0.53125 -0.875
vt 0.90625 -0.875
vt 0.90625 0
vt 0.265625 -0.875
vt 0.265625 0
vt 0.0859375 0
vt 0.0859375 -0.875
vt 0.328125 -0.875
vt 0.328125 0
vt 0.2578125 -0.875
vt 0.1328125 -0.875
vt 0.1328125 0
vt 0.0625 -0.875
vt 0.421875 -0.875
vt 0.421875 0
vt 0.3203125 0
vt 0.3203125 -0.875
vt 0.75 -0.375
vt 0.75 -0.25
vt 1.570313 -2.5
vt 1.570313 0
vt 0.953125 0
vt 0.953125 -2.5
vt 1.257813 -2.5
vt 3.75 -1
vt 3.75 0
vt 1.226563 -0.125
vt 0.2265625 0
vt 0.2265625 -0.125
vt 1.148438 -0.125
vt 1.148438 0
vt 1.03125 -1.5
vt 1.03125 0
vt 0.78125 -1.5
vt 0.5 -1.375
vt 0.25 -1.375
vt 2.5 -1
vt 2.5 -0.5
vt 2.5 -0.125
vt 2.5 0
vt 0.78125 -1.375
vt 0.53125 -1.375
vt 1.25 -0.125
vt 1.085938 -2
vt 1.085938 0
vt 0.3359375 0
vt 0.3359375 -2
vt 1.335938 -2.125
vt 1.335938 0
vt 0.5859375 0
vt 0.5859375 -2.125
vt 1.585938 -2.25
vt 1.585938 0
vt 0.8359375 -2.25
vt 1.015625 -2.375
vt 1.015625 0
vt 0.5703125 -2.375
vt 0.578125 -2.375
vt 0.578125 0
vt 0.015625 0
vt 0.015625 -2.375
vt 1.25 -2.375
vt 0.4609375 0
vt 0.4609375 -2.375
vt 0.8359375 -2.375
vt 0.3359375 -2.375
vt 3.25 -1
vt 14 15
vt 14.5 15
vt 14.5 18
vt 14 18
vt 10.5 -1
vt 11 -1
vt 11 1
vt 11 -4.5
vt 11 -2.5
vt 10.5 -2.5
vt 9.5 -4.5
vt 9.5 1
vt -7 5
vt -3 5
vt -3 8
vt -7 8
vt 4.5 3
vt 8.5 3
vt 8.5 4
vt 4.5 4
vt -3 4
vt -3 3
vt 1.5 3
vt 1.5 4
vt -3 13
vt 1.5 12
vt 2 13.5
vt -2 16
vt 2.5 18.5
vt 4 15
vt 5 15
vt 4.5 18.5
vt 3 14.5
vt 0 17.5
vt -3 9
vt 1.5 9
vt 6.5 15
vt 6.5 18.5
vt 8.5 15
vt 8.5 18.5
vt 21.5 3
vt 21.5 2
vt 28 2
vt 28 3
vt 6 11.5
vt 7 11.5
vt 7 12.5
vt 6 12.5
vt 1.5 -2
vt 2.5 -2
vt 2.5 -1.5
vt 1.5 -1.5
vt -1.5 -9
vt 0.5 -9
vt 0.5 -8
vt -1.5 -8
vt -6.5 -21.5
vt 30.5 -21.5
vt 30.5 -9
vt -6.5 -9
vt 12.5 4
vt 13.5 4
vt 13.5 7
vt 10 3.5
vt 12.5 3.5
vt 10 4
vt 11.5 9
vt 25.5 10.5
vt 28.5 10.5
vt 28.5 11
vt 25.5 11
vt 15 2.5
vt 19 2.5
vt 19 4
vt 15 4
vt 2.5 9
vt 2.5 10
vt 1.5 10
vt 2.5 11
vt 1.5 11
vt 3.5 9
vt 3.5 10
vt 3.5 11
vt 4.5 9
vt 4.5 10
vt 2.5 12
vt 8.5 14
vt 8.5 13
vt 9.5 13
vt 9.5 14
vt 25.5 10
vt 28.5 10
vt 25.5 9.5
vt 28.5 9.5
vt 28.375 4
vt 32 4
vt 32 9
vt 28 3.625
vt 21.5 3.25
vt 20.5 7
vt 20.5 4
vt 20.75 4
vt 14 18.5
vt 14 13
vt 15.5 11.5
vt 16 11
vt 25 9.5
vt 25 11
vt 28.5 9
vt 28.125 3.875
vt 21.4375 3.5
vt 21 3.9375
vt 21.25 3.75
vt 25 10
vt 21 14.5
vt 21 14
vt 24.5 14
vt 24.5 14.5
vt 15 15
vt 15 18
vt 15.5 15
vt 15.5 18
vt 16.5 18
vt 19.5 20.5
vt 16.5 20.5
vt 19.5 13.5
vt 28.5 20.5
vt 26 20.5
vt 26 13.5
vt 5 -5.5
vt 6 -5.5
vt 6 -4.5
vt 5 -4.5
vt 0.5 -2
vt 3.75 -7.5
vt 6.5 -7.5
vt 6.5 -6
vt 8 -5.5
vt 8 -3
vt 3.75 -3
vt 8 -6
vt 0.5 -3
vt 0.5 -3.5
vt 1.5 -3.5
vt 1.5 -3
vt 8 -2
vt 2.75 -7.5
vt 2.75 -3
vt 1.5 -2.5
vt 2.5 -2.5
vt 2.75 -2
vt 3.75 2
vt 2.75 2
vt 3.75 -2
vt -0.5 -2
vt -0.5 -3
vt -0.5 -6
vt -0.5 -7.5
vt -2 -4
vt -2 -6
vt -0.5 -4
vt -0.5 0
vt -2 2
vt -2 0
vt 8 2
vt -7 -9
vt -7 -22
vt 31 -9
vt 31 -22
vt 5.5 -9
vt 7.5 -9
vt 7.5 -8
vt 5.5 -8
vt 2 -9
vt 4 -9
vt 4 -8
vt 2 -8
vt 2.5 3
vt 3.5 3
vt 3.5 4
vt 2.5 4
vt 12.5 -4.5
vt 12.5 1
vt 9 2
vt 9 3
vt 9 -7
vt -3 -1
vt 7.5 -7
vt -1.5 -1
vt -1.5 -3
vt -3 -3
vt -3 -7
vt -1.5 -7
vt 9 -4.5
vt 9 1
vt 15 1.5
vt 15 1
vt 19 1
vt 19 1.5
vt 14 -5.5
vt 15 -6.5
vt 17 -4.5
vt 16 -3.5
vt 16.5 -8
vt 19 -8
vt 19 -5.5
vt 18 -5.5
vt 13 -4.5
vt 14.5 1
vt 14.5 -2
vt 21.4375 -0.5
vt 21.5 -0.3125
vt 21.5 1
vt 21.375 -0.625
vt 21.125 -0.875
vt 21 -0.9375
vt 20.8125 -1
vt 17 -1
vt 15.25 -2.75
vt 29 -4.5
vt 29.5 -3
vt 29.5 1
vt 28.5 -5.5
vt 27.625 -6.375
vt 25.5 -5.5
vt 28 1
vt 19 2
vt 15 2
vt 20.5 -8
vt 20.5 -5.5
vt 22 -8
vt 22 -5.5
vt 23.5 -8
vt 23.5 -5.5
vt 26 -7.5
vt 27 -7
vt 24.5 -8
vt 21 13.5
vt 24.5 13.5
vt 24.5 15
vt 26 15
vt 26 18
vt 21 15
vt 19.5 18
vt 19.5 15
mtllib MAP01_MAP01.mtl
usemtl Default
f 1/1/1 2/2/1 3/3/1 4/4/1
f 5/1/2 6/2/2 7/3/2 8/4/2
f 4/5/3 3/6/3 6/3/3 5/4/3
usemtl STARTAN2
f 9/7/4 10/8/4 11/9/4 12/10/4
f 13/11/3 14/12/3 15/13/3 16/14/3
f 16/15/2 17/16/2 18/13/2 9/17/2
f 19/18/4 20/19/4 21/12/4 22/20/4
f 23/18/3 24/19/3 25/12/3 26/20/3
f 27/21/2 28/22/2 29/13/2 30/4/2
f 31/20/4 32/12/4 28/13/4 27/4/4
f 30/20/3 29/12/3 33/13/3 34/4/3
f 35/23/1 36/16/1 37/13/1 38/4/1
f 39/24/4 40/25/4 36/26/4 35/27/4
f 38/28/3 37/29/3 41/13/3 42/4/3
f 43/27/2 44/26/2 45/30/2 46/31/2
f 47/32/1 48/33/1 49/34/1 50/35/1
f 51/36/2 52/8/2 53/37/2 54/38/2
f 55/39/1 56/40/1 57/22/1 58/21/1
f 59/41/5 60/42/5 61/43/5 62/44/5
f 63/45/5 64/46/5 60/47/5 59/48/5
f 62/49/6 65/50/6 66/13/6 67/17/6
f 68/51/7 69/52/7 70/13/7 71/17/7
f 72/53/4 73/54/4 74/55/4 68/56/4
f 75/57/8 63/58/8 76/13/8 77/17/8
f 78/59/9 79/60/9 64/61/9 75/62/9
f 80/63/3 81/64/3 82/65/3 83/66/3
f 84/67/1 85/68/1 86/22/1 80/69/1
f 65/70/1 61/40/1 85/22/1 84/69/1
f 87/71/10 78/72/10 88/13/10 89/17/10
f 69/73/11 74/74/11 79/75/11 87/76/11
f 90/77/12 72/60/12 91/13/12 92/17/12
f 93/78/4 94/8/4 73/79/4 90/80/4
f 95/81/1 93/82/1 96/13/1 97/17/1
f 98/83/4 99/84/4 94/9/4 95/10/4
f 100/85/1 101/33/1 102/34/1 103/86/1
f 104/87/2 105/9/2 106/88/2 107/89/2
f 108/90/3 109/91/3 110/92/3 111/4/3
f 112/93/1 113/94/1 114/95/1 115/96/1
f 116/91/2 117/97/2 118/13/2 119/92/2
f 115/91/1 114/97/1 120/12/1 121/98/1
f 117/18/4 122/99/4 123/100/4 120/4/4
f 124/101/4 116/19/4 121/13/4 125/102/4
f 126/103/4 127/22/4 122/13/4 124/104/4
f 128/18/4 129/99/4 127/100/4 130/4/4
f 131/101/4 132/19/4 133/13/4 126/102/4
f 134/103/4 135/22/4 129/13/4 131/104/4
f 136/18/4 137/99/4 135/100/4 138/4/4
f 139/101/4 140/19/4 141/13/4 134/102/4
f 8/105/4 7/106/4 137/13/4 139/104/4
f 125/107/4 123/108/4 2/12/4 1/109/4
f 142/110/2 143/111/2 144/112/2 145/113/2
f 146/114/3 147/115/3 143/34/3 142/86/3
f 148/85/1 149/33/1 147/116/1 146/117/1
f 46/118/3 150/119/3 149/120/3 148/121/3
f 48/28/3 151/122/3 150/100/3 45/4/3
f 152/123/3 153/37/3 151/79/3 47/124/3
f 56/125/3 154/126/3 155/100/3 53/4/3
f 40/28/1 156/122/1 157/127/1 41/90/1
f 42/128/1 157/97/1 154/13/1 55/104/1
f 81/129/1 86/26/1 156/30/1 39/130/1
f 145/85/3 144/33/3 158/34/3 159/86/3
f 54/123/3 155/37/3 160/79/3 161/124/3
f 162/36/3 160/131/3 153/132/3 163/38/3
f 161/131/3 164/8/3 165/37/3 152/132/3
f 166/133/4 167/68/4 168/22/4 169/134/4
f 170/135/2 171/47/2 172/136/2 166/137/2
f 173/138/1 174/120/1 175/34/1 176/139/1
f 177/140/2 178/141/2 179/61/2 180/142/2
f 181/143/1 182/144/1 183/43/1 184/145/1
f 185/146/3 186/147/3 187/148/3 188/149/3
f 188/149/3 187/148/3 189/150/3 190/151/3
f 191/152/1 66/153/1 182/144/1 192/154/1
f 193/15/4 170/16/4 194/13/4 195/17/4
f 196/155/2 197/156/2 171/47/2 193/157/2
f 195/158/1 194/12/1 198/13/1 199/17/1
f 200/15/4 196/16/4 199/13/4 201/17/4
f 202/159/2 203/160/2 197/156/2 200/161/2
f 204/158/4 205/12/4 206/13/4 207/17/4
f 208/15/4 202/16/4 205/13/4 204/17/4
f 209/162/2 210/47/2 203/136/2 208/163/2
f 211/164/4 212/165/4 210/156/4 209/166/4
f 213/167/3 214/168/3 215/120/3 216/169/3
f 217/170/3 218/171/3 219/34/3
f 220/172/13 221/173/13 218/174/13 217/175/13
f 222/176/3 189/150/3 221/97/3 220/90/3
f 223/177/14 76/46/14 67/47/14 191/178/14
f 224/179/15 88/180/15 77/61/15 223/181/15
f 225/182/16 70/183/16 89/184/16 224/185/16
f 226/186/4 91/187/4 71/75/4 225/188/4
f 227/189/4 96/190/4 92/187/4 226/191/4
f 228/192/4 229/54/4 97/55/4 227/193/4
f 230/194/1 98/195/1 229/55/1 228/193/1
f 231/196/4 232/197/4 99/79/4 230/198/4
f 233/199/2 11/37/2 232/88/2 231/200/2
f 234/15/2 13/16/2 12/13/2 233/17/2
f 235/201/17 236/202/17 237/13/17 238/100/17
f 239/149/4 240/148/4 236/13/4 235/100/4
f 241/99/1 242/19/1 243/97/1 244/127/1
f 245/127/3 246/97/3 242/13/3 241/100/3
f 247/203/2 248/144/2 246/43/2 245/204/2
f 244/127/4 243/97/4 248/13/4 247/100/4
f 249/205/1 250/97/1 251/13/1 252/17/1
f 253/205/3 254/97/3 250/13/3 249/17/3
f 255/205/2 256/97/2 254/13/2 253/17/2
f 252/205/4 251/97/4 256/13/4 255/17/4
f 207/158/2 206/12/2 257/13/2 258/17/2
f 258/206/2 259/97/2 260/13/2 239/14/2
f 238/207/2 237/16/2 14/97/2 234/127/2
f 261/208/1 262/209/1 263/33/1 100/210/1
f 264/211/18 265/212/18 266/33/18 267/210/18
f 101/213/3 263/214/3 268/215/3 106/216/3
f 269/217/19 270/218/19 271/9/19 272/219/19
f 273/169/20 274/120/20 262/209/20 261/208/20
f 275/220/3 276/221/3 277/222/3 278/223/3
f 267/224/21 266/225/21 274/111/21 273/226/21
f 278/226/22 277/111/22 265/227/22 264/228/22
f 107/200/2 268/88/2 270/229/2 269/230/2
f 272/231/23 271/232/23 214/222/23 213/223/23
f 279/233/2 280/215/2 212/136/2 211/163/2
f 216/234/3 215/235/3 280/236/3 279/237/3
f 169/134/4 168/22/4 240/97/4 260/205/4
f 201/238/4 198/12/4 259/13/4 257/239/4
f 281/240/1 282/97/1 283/12/1 284/241/1
f 285/240/2 286/97/2 287/12/2 288/241/2
f 289/242/4 290/88/4 10/79/4 18/80/4
f 17/238/3 15/12/3 291/13/3 292/239/3
f 292/15/2 293/16/2 294/13/2 289/17/2
f 295/243/4 296/37/4 290/88/4 294/244/4
f 293/158/3 291/12/3 297/13/3 298/17/3
f 298/15/2 297/16/2 299/13/2 295/17/2
f 300/245/4 301/8/4 296/37/4 299/246/4
f 302/247/1 303/84/1 301/37/1 300/246/1
f 304/248/4 305/249/4 303/250/4 302/251/4
f 306/252/2 307/253/2 305/254/2 304/255/2
f 308/256/2 309/249/2 307/250/2 310/257/2
f 311/252/2 312/253/2 309/258/2 313/259/2
f 314/260/4 315/168/4 312/254/4 311/255/4
f 316/261/4 317/262/4 315/168/4 318/263/4
f 319/252/4 320/253/4 317/258/4 321/259/4
f 322/264/1 323/160/1 320/136/1 319/265/1
f 324/266/1 325/165/1 323/160/1 326/267/1
f 327/268/1 328/269/1 325/136/1 329/265/1
f 330/270/4 331/271/4 328/272/4 327/273/4
f 332/274/2 333/275/2 331/236/2 330/276/2
f 167/277/2 172/278/2 333/47/2 332/279/2
f 174/28/3 334/122/3 335/100/3 179/4/3
f 336/280/3 173/29/3 180/13/3 337/281/3
f 159/282/3 158/221/3 334/116/3 336/283/3
f 337/284/3 335/119/3 276/120/3 275/169/3
f 338/90/3 339/91/3 109/92/3 108/4/3
f 340/21/3 341/285/3 342/100/3 343/4/3
f 344/21/2 345/285/2 341/100/2 340/4/2
f 346/286/3 347/287/3 345/100/3 344/4/3
f 343/28/2 342/122/2 348/127/2 349/90/2
f 350/288/4 348/289/4 351/92/4 352/4/4
f 352/125/1 351/290/1 347/92/1 353/4/1
f 354/90/3 355/291/3 356/292/3 357/4/3
f 358/20/1 359/293/1 355/292/1 354/4/1
f 357/20/2 356/293/2 360/292/2 361/4/2
f 362/90/4 360/91/4 359/92/4 363/4/4
f 364/21/4 365/294/4 366/295/4 367/20/4
f 349/90/2 350/296/2 368/297/2 369/4/2
f 370/21/3 371/294/3 353/295/3 346/20/3
f 372/90/1 373/296/1 374/297/1 375/4/1
f 371/125/2 376/298/2 377/299/2 378/4/2
f 379/300/3 380/301/3 376/302/3 370/4/3
f 381/21/1 382/303/1 380/302/1 379/4/1
f 383/21/3 384/303/3 382/302/3 381/4/3
f 385/18/1 386/304/1 384/302/1 383/4/1
f 387/305/4 388/306/4 386/307/4 385/308/4
f 375/18/1 389/304/1 388/309/1 387/90/1
f 363/90/4 358/240/4 389/299/4 374/4/4
f 378/310/4 377/311/4 361/299/4 362/4/4
f 373/90/3 390/91/3 339/92/3 338/4/3
f 391/23/1 392/207/1 390/127/1 372/90/1
f 393/312/3 394/313/3 392/314/3 391/315/3
f 395/316/1 396/317/1 394/318/1 393/319/1
f 367/320/4 397/321/4 396/100/4 395/4/4
f 398/28/2 399/322/2 397/92/2 366/4/2
f 111/323/3 110/324/3 399/92/3 398/4/3
f 365/28/1 400/322/1 401/92/1 402/4/1
f 403/288/4 404/325/4 400/100/4 364/4/4
f 369/28/2 405/122/2 404/100/2 403/4/2
f 402/288/3 401/289/3 405/92/3 368/4/3
f 406/98/2 407/12/2 408/13/2 409/92/2
f 140/326/2 136/19/2 407/22/2 406/327/2
f 410/326/1 411/19/1 138/97/1 141/91/1
f 132/327/2 128/22/2 412/12/2 413/98/2
f 414/328/1 415/40/1 130/22/1 133/327/1
f 164/127/1 162/97/1 416/13/1 417/100/1
f 418/127/2 419/97/2 163/13/2 165/100/2
f 420/329/4 421/22/4 20/13/4 422/330/4
f 422/331/1 19/332/1 34/29/1 423/333/1
f 424/334/1 31/19/1 26/13/1 425/17/1
f 423/335/1 33/82/1 32/19/1 424/336/1
f 425/337/3 25/40/3 426/97/3 427/338/3
f 428/339/2 429/82/2 430/97/2 431/128/2
f 432/103/3 433/22/3 429/13/3 428/104/3
f 434/340/2 435/19/2 433/97/2 432/128/2
f 411/18/3 436/99/3 435/100/3 408/4/3
f 437/101/3 410/19/3 409/13/3 434/102/3
f 438/341/3 439/40/3 436/97/3 437/128/3
f 415/342/3 440/343/3 439/344/3 412/345/3
f 441/346/3 414/108/3 413/82/3 438/347/3
f 442/103/3 443/22/3 440/13/3 441/104/3
f 113/348/3 444/149/3 443/349/3 118/350/3
f 445/351/3 112/148/3 119/94/3 442/352/3
f 446/340/1 447/19/1 444/97/1 445/128/1
f 448/341/3 449/40/3 447/97/3 446/128/3
f 450/353/1 451/29/1 449/13/1 448/104/1
f 452/103/4 453/22/4 451/13/4 450/104/4
f 454/339/1 455/82/1 453/22/1 452/103/1
f 456/354/3 457/355/3 455/236/3 454/356/3
f 58/357/1 458/68/1 457/12/1 456/109/1
f 52/125/4 459/126/4 458/100/4 57/4/4
f 460/103/4 461/22/4 459/12/4 51/109/4
f 419/39/4 462/358/4 461/285/4 416/21/4
f 463/358/4 418/40/4 417/22/4 460/285/4
f 50/103/4 464/22/4 462/12/4 463/109/4
f 44/342/4 465/343/4 464/285/4 49/21/4
f 466/128/4 467/97/4 465/12/4 43/109/4
f 468/340/2 469/19/2 467/13/2 466/104/2
f 24/342/2 470/343/2 471/100/2 21/4/2
f 431/109/3 430/12/3 470/13/3 23/104/3
f 22/109/4 471/12/4 469/13/4 468/104/4
f 472/359/1 473/19/1 474/22/1 475/69/1
f 476/360/2 477/47/2 478/136/2 479/361/2
f 479/333/4 480/29/4 481/13/4 472/17/4
f 482/362/13 483/363/13 484/97/13 485/364/13
f 486/365/15 487/202/15 488/13/15 482/17/15
f 489/366/10 484/367/10 490/22/10 491/368/10
f 492/365/15 493/202/15 485/13/15 489/17/15
f 491/369/3 490/370/3 494/371/3 495/372/3
f 427/373/3 496/97/3 497/12/3 498/374/3
f 499/359/4 500/19/4 501/13/4 420/375/4
f 498/376/10 497/355/10 483/377/10 488/378/10
f 421/342/1 501/343/1 496/100/1 426/4/1
f 502/379/4 503/380/4 477/381/4 476/382/4
f 475/359/4 474/19/4 500/22/4 499/69/4
f 504/383/15 505/384/15 506/13/15 507/299/15
f 508/385/4 509/52/4 505/13/4 504/299/4
f 510/386/24 511/75/24 509/13/24 508/299/24
f 512/387/2 513/388/2 514/9/2 104/219/2
f 515/389/4 516/40/4 513/97/4 512/390/4
f 517/391/2 518/108/2 516/22/2 515/392/2
f 519/393/25 520/394/25 518/12/25 517/395/25
f 521/396/3 522/19/3 523/97/3 524/397/3
f 525/398/13 492/399/13 522/13/13 521/400/13
f 526/401/10 486/399/10 493/13/10 525/402/10
f 507/403/10 506/156/10 487/13/10 526/299/10
f 527/404/1 502/405/1 528/12/1 529/241/1
f 530/406/15 531/407/15 532/408/15 533/409/15
f 534/410/26 535/411/26 531/43/26 530/412/26
f 533/413/16 532/414/16 511/34/16 510/415/16
f 529/416/5 528/417/5 535/418/5 534/419/5
f 524/285/3 536/22/3 537/13/3 538/100/3
f 538/420/3 539/22/3 540/13/3 541/14/3
f 541/421/3 542/22/3 543/13/3 544/239/3
f 545/422/27 546/423/27 547/424/27 548/425/27
f 548/426/19 547/153/19 520/227/19 519/228/19
f 103/220/1 549/221/1 503/33/1 527/210/1
f 105/427/4 514/428/4 549/97/4 102/90/4
f 544/429/3 550/180/3 551/430/3 552/431/3
f 552/432/28 551/433/28 553/13/28 545/17/28
f 554/333/4 555/29/4 556/13/4 557/17/4
f 480/434/2 478/435/2 558/160/2 554/436/2
f 557/109/1 559/12/1 473/13/1 481/104/1
f 560/437/1 561/97/1 559/12/1 556/438/1
f 178/439/4 562/440/4 561/127/4 175/90/4
f 563/441/4 177/442/4 176/97/4 560/205/4
f 555/443/2 558/160/2 562/156/2 563/444/2
f 536/445/1 523/40/1 495/13/1 564/17/1
f 564/446/3 494/447/3 565/448/3 566/449/3
f 567/450/3 565/451/3 568/452/3 569/453/3
f 539/445/1 537/40/1 566/13/1 567/17/1
f 570/454/3 568/455/3 571/371/3 572/456/3
f 542/445/1 540/40/1 569/13/1 570/17/1
f 573/457/27 574/458/27 546/112/27 553/459/27
f 575/460/23 576/461/23 574/462/23 573/463/23
f 577/464/29 578/40/29 576/465/29 575/466/29
f 579/467/3 571/371/3 578/448/3 577/468/3
f 550/445/1 543/40/1 572/13/1 579/17/1
f 580/81/4 285/82/4 284/13/4 581/17/4
f 321/21/2 316/22/2 286/97/2 580/90/2
f 581/20/1 283/12/1 318/13/1 314/4/1
f 582/81/3 281/82/3 288/13/3 583/17/3
f 584/21/1 585/22/1 282/97/1 582/90/1
f 313/21/3 308/22/3 585/13/3 584/4/3
f 329/469/4 324/95/4 310/13/4 306/4/4
f 586/21/3 587/22/3 326/13/3 322/4/3
f 583/20/2 287/12/2 587/13/2 586/4/2
usemtl CRATE3
f 83/441/2 82/442/2 588/16/2 183/15/2
f 184/99/3 588/19/3 589/13/3 590/100/3
f 590/99/1 589/19/1 186/13/1 185/100/1
f 192/99/3 181/19/3 591/13/3 592/100/3
f 593/99/1 594/19/1 190/13/1 222/100/1
f 595/99/3 596/19/3 594/13/3 593/100/3
f 597/99/1 598/19/1 596/13/1 595/100/1
f 592/99/3 591/19/3 598/13/3 597/100/3
usemtl CRATE1
f 599/99/1 600/19/1 601/97/1 602/127/1
f 603/99/1 604/19/1 605/13/1 606/100/1
f 607/99/3 608/19/3 604/13/3 603/100/3
f 609/99/2 610/19/2 608/13/2 607/100/2
f 606/99/4 605/19/4 610/13/4 609/100/4
f 611/99/1 612/19/1 613/97/1 614/127/1
f 615/99/4 616/19/4 612/13/4 611/100/4
f 617/127/1 618/97/1 616/13/1 615/100/1
f 612/99/4 619/19/4 620/13/4 621/100/4
f 622/18/2 620/19/2 623/97/2 624/90/2
f 625/127/2 626/97/2 621/13/2 622/100/2
f 602/127/1 601/97/1 619/13/1 612/100/1
f 627/99/2 628/19/2 626/97/2 625/127/2
f 629/99/4 630/19/4 628/13/4 627/100/4
f 614/127/1 613/97/1 630/13/1 629/100/1
f 631/127/1 632/97/1 618/13/1 617/100/1
f 633/99/3 599/19/3 632/13/3 631/100/3
f 634/18/3 635/19/3 600/13/3 633/4/3
f 624/90/2 623/97/2 635/13/2 634/4/2
usemtl Default
usemtl FLOOR0_1
f 13/470/30 16/471/30 9/472/30
f 12/473/30 13/470/30 9/472/30
f 30/474/30 34/475/30 19/476/30
f 26/477/30 31/478/30 27/479/30
f 23/480/30 26/477/30 27/479/30
f 22/481/30 23/480/30 27/479/30
f 30/474/30 19/476/30 22/481/30
f 22/481/30 27/479/30 30/474/30
f 38/482/30 42/483/30 39/484/30
f 35/485/30 38/482/30 39/484/30
f 50/486/30 43/487/30 46/488/30
f 47/489/30 50/486/30 46/488/30
f 55/490/30 58/491/30 51/492/30
f 54/493/30 55/490/30 51/492/30
f 62/494/30 67/495/30 76/496/30
f 63/497/30 62/494/30 76/496/30
f 68/498/30 71/499/30 91/500/30
f 72/501/30 68/498/30 91/500/30
f 75/497/30 77/496/30 88/502/30
f 78/503/30 75/497/30 88/502/30
f 80/504/30 83/505/30 66/495/30
f 65/494/30 80/504/30 66/495/30
f 87/503/30 89/502/30 70/499/30
f 69/498/30 87/503/30 70/499/30
f 92/500/30 96/506/30 93/507/30
f 90/501/30 92/500/30 93/507/30
f 97/506/30 229/508/30 98/509/30
f 95/507/30 97/506/30 98/509/30
f 100/510/30 103/511/30 104/512/30
f 107/513/30 100/510/30 104/512/30
f 256/514/30 251/515/30 250/516/30
f 254/517/30 256/514/30 250/516/30
f 602/518/30 618/519/30 632/520/30
f 599/521/30 602/518/30 632/520/30
f 121/522/30 116/523/30 119/524/30
f 112/525/30 121/522/30 119/524/30
f 4/526/30 5/527/30 8/528/30
f 1/529/30 4/526/30 8/528/30
f 145/530/30 159/531/30 218/532/30
f 146/533/30 142/534/30 145/530/30
f 148/535/30 146/533/30 145/530/30
f 81/504/30 55/490/30 148/535/30
f 221/536/30 81/504/30 148/535/30
f 218/532/30 221/536/30 148/535/30
f 145/530/30 218/532/30 148/535/30
f 194/537/30 170/538/30 166/539/30
f 169/540/30 194/537/30 166/539/30
f 176/541/30 177/542/30 180/543/30
f 173/544/30 176/541/30 180/543/30
f 82/505/30 186/545/30 589/546/30
f 588/547/30 82/505/30 589/546/30
f 184/547/30 590/546/30 591/548/30
f 181/549/30 184/547/30 591/548/30
f 185/545/30 188/550/30 596/551/30
f 590/546/30 185/545/30 596/551/30
f 590/546/30 596/551/30 598/552/30
f 591/548/30 590/546/30 598/552/30
f 188/550/30 190/553/30 594/554/30
f 596/551/30 188/550/30 594/554/30
f 192/549/30 592/548/30 636/555/30
f 191/495/30 192/549/30 636/555/30
f 246/556/30 248/557/30 243/558/30
f 242/559/30 246/556/30 243/558/30
f 199/560/30 196/561/30 193/538/30
f 195/537/30 199/560/30 193/538/30
f 205/562/30 202/563/30 200/561/30
f 201/560/30 205/562/30 200/561/30
f 213/564/30 279/565/30 211/566/30
f 100/510/30 107/513/30 269/567/30
f 261/568/30 100/510/30 269/567/30
f 219/569/30 275/570/30 278/571/30
f 220/536/30 217/532/30 219/569/30
f 593/554/30 222/553/30 220/536/30
f 597/552/30 595/551/30 593/554/30
f 636/555/30 592/548/30 597/552/30
f 223/496/30 191/495/30 636/555/30
f 224/502/30 223/496/30 636/555/30
f 225/499/30 224/502/30 636/555/30
f 228/508/30 225/499/30 636/555/30
f 231/572/30 230/509/30 228/508/30
f 238/573/30 231/572/30 228/508/30
f 241/559/30 244/558/30 238/573/30
f 637/574/30 238/573/30 247/557/30
f 252/515/30 637/574/30 247/557/30
f 249/516/30 252/515/30 247/557/30
f 235/575/30 637/574/30 255/514/30
f 207/576/30 239/577/30 235/575/30
f 209/578/30 208/563/30 207/576/30
f 213/564/30 211/566/30 209/578/30
f 272/579/30 213/564/30 209/578/30
f 261/568/30 269/567/30 272/579/30
f 273/580/30 261/568/30 272/579/30
f 219/569/30 278/571/30 264/581/30
f 597/552/30 593/554/30 220/536/30
f 636/555/30 597/552/30 220/536/30
f 241/559/30 238/573/30 228/508/30
f 249/516/30 247/557/30 245/556/30
f 253/517/30 249/516/30 245/556/30
f 207/576/30 235/575/30 255/514/30
f 272/579/30 209/578/30 207/576/30
f 273/580/30 272/579/30 207/576/30
f 267/582/30 273/580/30 207/576/30
f 219/569/30 264/581/30 267/582/30
f 636/555/30 220/536/30 219/569/30
f 245/556/30 241/559/30 228/508/30
f 219/569/30 267/582/30 207/576/30
f 245/556/30 228/508/30 636/555/30
f 253/517/30 245/556/30 636/555/30
f 219/569/30 207/576/30 255/514/30
f 255/514/30 253/517/30 636/555/30
f 636/555/30 219/569/30 255/514/30
f 259/583/30 198/560/30 169/540/30
f 260/577/30 259/583/30 169/540/30
f 206/576/30 205/562/30 201/560/30
f 257/583/30 206/576/30 201/560/30
f 281/584/30 284/585/30 285/586/30
f 288/587/30 281/584/30 285/586/30
f 17/471/30 292/588/30 289/589/30
f 18/472/30 17/471/30 289/589/30
f 293/588/30 298/590/30 295/591/30
f 294/589/30 293/588/30 295/591/30
f 237/573/30 236/575/30 167/539/30
f 14/470/30 237/573/30 167/539/30
f 300/592/30 299/591/30 297/590/30
f 304/593/30 302/594/30 300/592/30
f 311/595/30 304/593/30 300/592/30
f 330/596/30 327/597/30 319/598/30
f 167/539/30 330/596/30 319/598/30
f 311/595/30 300/592/30 297/590/30
f 167/539/30 319/598/30 311/595/30
f 311/595/30 297/590/30 14/470/30
f 14/470/30 167/539/30 311/595/30
f 159/531/31 275/570/31 219/569/31
f 218/532/31 159/531/31 219/569/31
f 610/599/30 605/600/30 604/601/30
f 608/602/30 610/599/30 604/601/30
f 623/603/30 601/518/30 600/521/30
f 635/128/30 623/603/30 600/521/30
f 638/604/30 639/605/30 640/606/30
f 641/607/30 642/608/30 643/609/30
f 603/601/30 606/600/30 641/607/30
f 644/610/30 641/607/30 609/599/30
f 640/606/30 644/610/30 609/599/30
f 603/601/30 641/607/30 643/609/30
f 638/604/30 640/606/30 609/599/30
f 607/602/30 603/601/30 643/609/30
f 638/604/30 609/599/30 607/602/30
f 643/609/30 638/604/30 607/602/30
f 626/611/30 628/612/30 630/613/30
f 613/614/30 626/611/30 630/613/30
f 643/609/30 642/608/30 645/615/30
f 646/616/30 638/604/30 643/609/30
f 647/617/30 646/616/30 643/609/30
f 611/618/30 614/614/30 647/617/30
f 615/619/30 611/618/30 647/617/30
f 648/620/30 617/519/30 615/619/30
f 649/621/30 650/622/30 648/620/30
f 651/623/30 649/621/30 648/620/30
f 643/609/30 645/615/30 651/623/30
f 647/617/30 643/609/30 651/623/30
f 615/619/30 647/617/30 651/623/30
f 648/620/30 615/619/30 651/623/30
f 621/390/30 626/611/30 613/614/30
f 612/618/30 621/390/30 613/614/30
f 652/624/30 653/625/30 625/611/30
f 624/603/30 652/624/30 625/611/30
f 620/390/30 619/618/30 601/518/30
f 623/603/30 620/390/30 601/518/30
f 612/618/30 616/619/30 618/519/30
f 602/518/30 612/618/30 618/519/30
f 654/626/30 655/627/30 646/616/30
f 656/628/30 657/629/30 654/626/30
f 658/630/30 656/628/30 654/626/30
f 625/611/30 653/625/30 658/630/30
f 627/612/30 625/611/30 658/630/30
f 647/617/30 614/614/30 629/613/30
f 646/616/30 647/617/30 629/613/30
f 654/626/30 646/616/30 629/613/30
f 658/630/30 654/626/30 629/613/30
f 627/612/30 658/630/30 629/613/30
f 617/519/30 648/620/30 650/622/30
f 631/520/30 617/519/30 650/622/30
f 652/624/30 624/603/30 634/128/30
f 659/631/30 652/624/30 634/128/30
f 660/632/30 661/633/30 659/631/30
f 650/622/30 660/632/30 659/631/30
f 631/520/30 650/622/30 659/631/30
f 634/128/30 631/520/30 659/631/30
f 651/623/30 645/615/30 662/634/30
f 649/621/30 651/623/30 662/634/30
f 1/529/30 663/635/30 664/636/30
f 4/526/30 1/529/30 664/636/30
f 665/637/30 8/528/30 5/527/30
f 666/638/30 665/637/30 5/527/30
f 4/526/30 664/636/30 666/638/30
f 5/527/30 4/526/30 666/638/30
f 141/639/30 140/640/30 409/641/30
f 410/642/30 141/639/30 409/641/30
f 133/643/30 132/644/30 413/645/30
f 414/646/30 133/643/30 413/645/30
f 417/647/30 418/648/30 165/649/30
f 164/650/30 417/647/30 165/649/30
f 425/477/30 427/651/30 420/652/30
f 422/476/30 425/477/30 420/652/30
f 667/653/30 466/654/30 58/491/30
f 660/632/30 667/653/30 58/491/30
f 655/627/30 654/626/30 657/629/30
f 644/610/30 640/606/30 639/605/30
f 667/653/30 662/634/30 644/610/30
f 428/655/30 667/653/30 644/610/30
f 660/632/30 58/491/30 456/656/30
f 661/633/30 660/632/30 456/656/30
f 432/657/30 428/655/30 644/610/30
f 661/633/30 456/656/30 454/658/30
f 659/631/30 661/633/30 454/658/30
f 432/657/30 644/610/30 639/605/30
f 659/631/30 454/658/30 452/659/30
f 658/630/30 659/631/30 452/659/30
f 434/641/30 432/657/30 639/605/30
f 658/630/30 452/659/30 450/660/30
f 656/628/30 658/630/30 450/660/30
f 434/641/30 639/605/30 655/627/30
f 445/525/30 434/641/30 655/627/30
f 656/628/30 450/660/30 448/661/30
f 657/629/30 656/628/30 448/661/30
f 446/662/30 445/525/30 655/627/30
f 657/629/30 448/661/30 446/662/30
f 446/662/30 655/627/30 657/629/30
f 431/663/30 23/480/30 22/481/30
f 468/664/30 431/663/30 22/481/30
f 472/665/30 475/666/30 476/667/30
f 479/668/30 472/665/30 476/667/30
f 482/669/30 485/670/30 493/671/30
f 486/672/30 482/669/30 493/671/30
f 491/673/30 495/674/30 523/675/30
f 489/670/30 491/673/30 523/675/30
f 522/676/30 492/671/30 489/670/30
f 489/670/30 523/675/30 522/676/30
f 498/677/30 488/669/30 487/672/30
f 420/652/30 427/651/30 498/677/30
f 499/678/30 420/652/30 498/677/30
f 668/679/30 499/678/30 498/677/30
f 498/677/30 487/672/30 668/679/30
f 535/680/30 528/681/30 502/682/30
f 531/683/30 535/680/30 502/682/30
f 532/684/30 531/683/30 502/682/30
f 511/685/30 532/684/30 502/682/30
f 509/686/30 511/685/30 502/682/30
f 505/687/30 509/686/30 502/682/30
f 668/679/30 506/688/30 505/687/30
f 499/678/30 668/679/30 505/687/30
f 502/682/30 499/678/30 505/687/30
f 519/689/30 517/690/30 515/691/30
f 548/692/30 519/689/30 515/691/30
f 545/693/30 548/692/30 515/691/30
f 552/694/30 545/693/30 515/691/30
f 507/688/30 521/676/30 552/694/30
f 504/687/30 507/688/30 552/694/30
f 508/686/30 504/687/30 552/694/30
f 104/512/30 103/511/30 529/681/30
f 512/695/30 104/512/30 529/681/30
f 552/694/30 515/691/30 512/695/30
f 508/686/30 552/694/30 512/695/30
f 510/685/30 508/686/30 512/695/30
f 512/695/30 529/681/30 534/680/30
f 533/684/30 510/685/30 512/695/30
f 512/695/30 534/680/30 530/683/30
f 530/683/30 533/684/30 512/695/30
f 481/665/30 480/668/30 554/696/30
f 557/697/30 481/665/30 554/696/30
f 560/541/30 556/697/30 555/696/30
f 563/542/30 560/541/30 555/696/30
f 564/674/30 566/698/30 537/699/30
f 536/675/30 564/674/30 537/699/30
f 567/698/30 569/700/30 540/701/30
f 539/699/30 567/698/30 540/701/30
f 570/700/30 572/702/30 543/703/30
f 542/701/30 570/700/30 543/703/30
f 575/704/30 573/705/30 553/693/30
f 577/706/30 575/704/30 553/693/30
f 579/702/30 577/706/30 553/693/30
f 550/703/30 579/702/30 553/693/30
f 551/694/30 550/703/30 553/693/30
f 314/707/30 321/708/30 580/586/30
f 581/585/30 314/707/30 580/586/30
f 586/709/30 322/710/30 329/711/30
f 582/584/30 583/587/30 586/709/30
f 584/712/30 582/584/30 586/709/30
f 306/713/30 313/714/30 584/712/30
f 329/711/30 306/713/30 584/712/30
f 586/709/30 329/711/30 584/712/30
usemtl CEIL1_1
f 669/470/32 10/472/32 670/471/32
f 11/473/32 10/472/32 669/470/32
f 29/474/32 20/476/32 33/475/32
f 25/477/32 28/479/32 32/478/32
f 24/480/32 28/479/32 25/477/32
f 21/481/32 28/479/32 24/480/32
f 29/474/32 21/481/32 20/476/32
f 21/481/32 29/474/32 28/479/32
f 37/482/32 40/484/32 41/483/32
f 36/485/32 40/484/32 37/482/32
f 49/486/32 45/488/32 44/487/32
f 48/489/32 45/488/32 49/486/32
f 56/490/32 52/492/32 57/491/32
f 53/493/32 52/492/32 56/490/32
f 61/494/32 671/496/32 672/495/32
f 64/497/32 671/496/32 61/494/32
f 74/498/32 673/500/32 674/499/32
f 73/501/32 673/500/32 74/498/32
f 64/497/32 675/502/32 671/496/32
f 79/503/32 675/502/32 64/497/32
f 86/504/32 672/495/32 676/505/32
f 61/494/32 672/495/32 86/504/32
f 79/503/32 674/499/32 675/502/32
f 74/498/32 674/499/32 79/503/32
f 673/500/32 94/507/32 677/506/32
f 73/501/32 94/507/32 673/500/32
f 677/506/32 99/509/32 678/508/32
f 94/507/32 99/509/32 677/506/32
f 101/510/32 105/512/32 102/511/32
f 106/513/32 105/512/32 101/510/32
f 679/514/32 680/516/32 681/515/32
f 682/517/32 680/516/32 679/514/32
f 120/522/32 118/524/32 117/523/32
f 113/525/32 118/524/32 120/522/32
f 144/530/32 683/532/32 158/531/32
f 147/533/32 144/530/32 143/534/32
f 149/535/32 144/530/32 147/533/32
f 86/504/32 149/535/32 154/490/32
f 684/536/32 149/535/32 86/504/32
f 683/532/32 149/535/32 684/536/32
f 144/530/32 149/535/32 683/532/32
f 685/537/32 172/539/32 171/538/32
f 686/540/32 172/539/32 685/537/32
f 175/541/32 179/543/32 178/542/32
f 174/544/32 179/543/32 175/541/32
f 676/505/32 687/546/32 688/545/32
f 689/547/32 687/546/32 676/505/32
f 689/547/32 690/548/32 687/546/32
f 691/549/32 690/548/32 689/547/32
f 688/545/32 692/551/32 693/550/32
f 687/546/32 692/551/32 688/545/32
f 687/546/32 694/552/32 692/551/32
f 690/548/32 694/552/32 687/546/32
f 693/550/32 695/554/32 696/553/32
f 692/551/32 695/554/32 693/550/32
f 691/549/32 697/555/32 690/548/32
f 672/495/32 697/555/32 691/549/32
f 698/556/32 699/558/32 700/557/32
f 701/559/32 699/558/32 698/556/32
f 702/560/32 171/538/32 197/561/32
f 685/537/32 171/538/32 702/560/32
f 703/562/32 197/561/32 203/563/32
f 702/560/32 197/561/32 703/562/32
f 214/564/32 212/566/32 280/565/32
f 263/510/32 270/567/32 268/513/32
f 262/568/32 270/567/32 263/510/32
f 704/569/32 277/571/32 276/570/32
f 684/536/32 704/569/32 683/532/32
f 695/554/32 684/536/32 696/553/32
f 694/552/32 695/554/32 692/551/32
f 697/555/32 694/552/32 690/548/32
f 671/496/32 697/555/32 672/495/32
f 675/502/32 697/555/32 671/496/32
f 674/499/32 697/555/32 675/502/32
f 678/508/32 697/555/32 674/499/32
f 232/572/32 678/508/32 99/509/32
f 705/573/32 678/508/32 232/572/32
f 701/559/32 705/573/32 699/558/32
f 706/574/32 700/557/32 705/573/32
f 681/515/32 700/557/32 706/574/32
f 680/516/32 700/557/32 681/515/32
f 707/575/32 679/514/32 706/574/32
f 708/576/32 707/575/32 709/577/32
f 210/578/32 708/576/32 203/563/32
f 214/564/32 210/578/32 212/566/32
f 271/579/32 210/578/32 214/564/32
f 262/568/32 271/579/32 270/567/32
f 274/580/32 271/579/32 262/568/32
f 704/569/32 265/581/32 277/571/32
f 694/552/32 684/536/32 695/554/32
f 697/555/32 684/536/32 694/552/32
f 701/559/32 678/508/32 705/573/32
f 680/516/32 698/556/32 700/557/32
f 682/517/32 698/556/32 680/516/32
f 708/576/32 679/514/32 707/575/32
f 271/579/32 708/576/32 210/578/32
f 274/580/32 708/576/32 271/579/32
f 266/582/32 708/576/32 274/580/32
f 704/569/32 266/582/32 265/581/32
f 697/555/32 704/569/32 684/536/32
f 698/556/32 678/508/32 701/559/32
f 704/569/32 708/576/32 266/582/32
f 698/556/32 697/555/32 678/508/32
f 682/517/32 697/555/32 698/556/32
f 704/569/32 679/514/32 708/576/32
f 679/514/32 697/555/32 682/517/32
f 697/555/32 679/514/32 704/569/32
f 710/583/32 686/540/32 702/560/32
f 709/577/32 686/540/32 710/583/32
f 708/576/32 702/560/32 703/562/32
f 710/583/32 702/560/32 708/576/32
f 282/584/32 286/586/32 283/585/32
f 287/587/32 286/586/32 282/584/32
f 670/471/32 290/589/32 711/588/32
f 10/472/32 290/589/32 670/471/32
f 711/588/32 296/591/32 712/590/32
f 290/589/32 296/591/32 711/588/32
f 705/573/32 172/539/32 707/575/32
f 669/470/32 172/539/32 705/573/32
f 301/592/32 712/590/32 296/591/32
f 305/593/32 301/592/32 303/594/32
f 312/595/32 301/592/32 305/593/32
f 331/596/32 320/598/32 328/597/32
f 172/539/32 320/598/32 331/596/32
f 312/595/32 712/590/32 301/592/32
f 172/539/32 312/595/32 320/598/32
f 312/595/32 669/470/32 712/590/32
f 669/470/32 312/595/32 172/539/32
f 158/531/32 704/569/32 276/570/32
f 683/532/32 704/569/32 158/531/32
f 359/611/32 356/613/32 355/612/32
f 360/614/32 356/613/32 359/611/32
f 352/609/32 368/615/32 350/608/32
f 371/616/32 352/609/32 353/604/32
f 378/617/32 352/609/32 371/616/32
f 713/618/32 378/617/32 362/614/32
f 714/619/32 378/617/32 713/618/32
f 398/620/32 714/619/32 111/519/32
f 365/621/32 398/620/32 366/622/32
f 402/623/32 398/620/32 365/621/32
f 352/609/32 402/623/32 368/615/32
f 378/617/32 402/623/32 352/609/32
f 714/619/32 402/623/32 378/617/32
f 398/620/32 402/623/32 714/619/32
f 715/390/32 362/614/32 363/611/32
f 713/618/32 362/614/32 715/390/32
f 373/624/32 363/611/32 374/625/32
f 338/603/32 363/611/32 373/624/32
f 715/390/32 108/518/32 713/618/32
f 338/603/32 108/518/32 715/390/32
f 713/618/32 111/519/32 714/619/32
f 108/518/32 111/519/32 713/618/32
f 138/639/32 408/641/32 136/640/32
f 411/642/32 408/641/32 138/639/32
f 130/643/32 412/645/32 128/644/32
f 415/646/32 412/645/32 130/643/32
f 416/647/32 163/649/32 419/648/32
f 162/650/32 163/649/32 416/647/32
f 25/477/32 421/652/32 426/651/32
f 20/476/32 421/652/32 25/477/32
f 716/653/32 458/491/32 467/654/32
f 395/632/32 458/491/32 716/653/32
f 379/627/32 383/629/32 381/626/32
f 343/610/32 344/605/32 340/606/32
f 716/653/32 343/610/32 403/634/32
f 429/655/32 343/610/32 716/653/32
f 395/632/32 457/656/32 458/491/32
f 393/633/32 457/656/32 395/632/32
f 433/657/32 343/610/32 429/655/32
f 393/633/32 455/658/32 457/656/32
f 391/631/32 455/658/32 393/633/32
f 433/657/32 344/605/32 343/610/32
f 391/631/32 453/659/32 455/658/32
f 387/630/32 453/659/32 391/631/32
f 435/641/32 344/605/32 433/657/32
f 387/630/32 451/660/32 453/659/32
f 385/628/32 451/660/32 387/630/32
f 435/641/32 379/627/32 344/605/32
f 444/525/32 379/627/32 435/641/32
f 385/628/32 449/661/32 451/660/32
f 383/629/32 449/661/32 385/628/32
f 447/662/32 379/627/32 444/525/32
f 383/629/32 447/662/32 449/661/32
f 447/662/32 383/629/32 379/627/32
f 430/663/32 471/481/32 470/480/32
f 469/664/32 471/481/32 430/663/32
f 473/665/32 477/667/32 474/666/32
f 478/668/32 477/667/32 473/665/32
f 483/669/32 717/671/32 484/670/32
f 718/672/32 717/671/32 483/669/32
f 490/673/32 719/675/32 494/674/32
f 484/670/32 719/675/32 490/673/32
f 720/676/32 484/670/32 717/671/32
f 484/670/32 720/676/32 719/675/32
f 497/677/32 718/672/32 483/669/32
f 501/652/32 497/677/32 496/651/32
f 500/678/32 497/677/32 501/652/32
f 721/679/32 497/677/32 500/678/32
f 497/677/32 721/679/32 718/672/32
f 722/680/32 503/682/32 723/681/32
f 724/683/32 503/682/32 722/680/32
f 725/684/32 503/682/32 724/683/32
f 726/685/32 503/682/32 725/684/32
f 727/686/32 503/682/32 726/685/32
f 728/687/32 503/682/32 727/686/32
f 721/679/32 728/687/32 729/688/32
f 500/678/32 728/687/32 721/679/32
f 503/682/32 728/687/32 500/678/32
f 520/689/32 516/691/32 518/690/32
f 547/692/32 516/691/32 520/689/32
f 546/693/32 516/691/32 547/692/32
f 730/694/32 516/691/32 546/693/32
f 729/688/32 730/694/32 720/676/32
f 728/687/32 730/694/32 729/688/32
f 727/686/32 730/694/32 728/687/32
f 514/512/32 723/681/32 549/511/32
f 513/695/32 723/681/32 514/512/32
f 730/694/32 513/695/32 516/691/32
f 727/686/32 513/695/32 730/694/32
f 726/685/32 513/695/32 727/686/32
f 513/695/32 722/680/32 723/681/32
f 725/684/32 513/695/32 726/685/32
f 513/695/32 724/683/32 722/680/32
f 724/683/32 513/695/32 725/684/32
f 473/665/32 558/696/32 478/668/32
f 559/697/32 558/696/32 473/665/32
f 561/541/32 558/696/32 559/697/32
f 562/542/32 558/696/32 561/541/32
f 494/674/32 731/699/32 565/698/32
f 719/675/32 731/699/32 494/674/32
f 565/698/32 732/701/32 568/700/32
f 731/699/32 732/701/32 565/698/32
f 568/700/32 733/703/32 571/702/32
f 732/701/32 733/703/32 568/700/32
f 576/704/32 546/693/32 574/705/32
f 578/706/32 546/693/32 576/704/32
f 571/702/32 546/693/32 578/706/32
f 733/703/32 546/693/32 571/702/32
f 730/694/32 546/693/32 733/703/32
f 318/707/32 286/586/32 316/708/32
f 283/585/32 286/586/32 318/707/32
f 587/709/32 324/711/32 326/710/32
f 282/584/32 587/709/32 287/587/32
f 585/712/32 587/709/32 282/584/32
f 310/713/32 585/712/32 308/714/32
f 324/711/32 585/712/32 310/713/32
f 587/709/32 585/712/32 324/711/32
usemtl F_SKY1
f 109/518/32 734/520/32 110/519/32
f 735/521/32 734/520/32 109/518/32
f 3/526/32 7/528/32 6/527/32
f 2/529/32 7/528/32 3/526/32
f 736/599/32 737/601/32 738/600/32
f 739/602/32 737/601/32 736/599/32
f 339/603/32 735/521/32 109/518/32
f 740/128/32 735/521/32 339/603/32
f 347/604/32 341/606/32 345/605/32
f 741/607/32 351/609/32 348/608/32
f 737/601/32 741/607/32 738/600/32
f 342/610/32 736/599/32 741/607/32
f 341/606/32 736/599/32 342/610/32
f 737/601/32 351/609/32 741/607/32
f 347/604/32 736/599/32 341/606/32
f 739/602/32 351/609/32 737/601/32
f 347/604/32 739/602/32 736/599/32
f 351/609/32 739/602/32 347/604/32
f 382/626/32 376/616/32 380/627/32
f 386/628/32 382/626/32 384/629/32
f 388/630/32 382/626/32 386/628/32
f 358/611/32 388/630/32 389/625/32
f 354/612/32 388/630/32 358/611/32
f 377/617/32 357/613/32 361/614/32
f 376/616/32 357/613/32 377/617/32
f 382/626/32 357/613/32 376/616/32
f 388/630/32 357/613/32 382/626/32
f 354/612/32 357/613/32 388/630/32
f 110/519/32 397/622/32 399/620/32
f 734/520/32 397/622/32 110/519/32
f 390/624/32 740/128/32 339/603/32
f 392/631/32 740/128/32 390/624/32
f 396/632/32 392/631/32 394/633/32
f 397/622/32 392/631/32 396/632/32
f 734/520/32 392/631/32 397/622/32
f 740/128/32 392/631/32 734/520/32
f 401/623/32 404/634/32 405/615/32
f 400/621/32 404/634/32 401/623/32
f 1/529/32 664/636/32 663/635/32
f 4/526/32 664/636/32 1/529/32
f 665/637/32 5/527/32 8/528/32
f 666/638/32 5/527/32 665/637/32
f 4/526/32 666/638/32 664/636/32
f 5/527/32 666/638/32 4/526/32
